<?xml version="1.0" encoding="UTF-8"?><svg id="Isolation_Mode" xmlns="http://www.w3.org/2000/svg" viewBox="0 0 78 46.87"><defs><style>.cls-1{fill:#fff;}</style></defs><path class="cls-1" d="M5.02,11.2c4.21-2.13,8.68-3.88,13.2-5.27,4.26-1.62,7.99-2.43,11.73-2.67,3.77-.24,5.7,.05,7.87,.63,2.17,.58,3.48,1.5,4.49,1.21,1.01-.29,2.17-1.5,2.95-2.46,.77-.97,1.93-1.69,3.38-2.27,1.45-.58,2.9-.34,3.72-.15,.3,.07,.65,.19,.94,.36,1.07-.24,1.98-.28,2.73-.17-.14,.04-.28,.1-.44,.15l-1.5,.96c-.11,.33-.28,.89-.34,1.31-.1,.63-.14,1.98-.29,3.19-.07,.59-.23,1.15-.44,1.7,.22,.18,.47,.36,.73,.48,.97,.43,4.97,.53,7.24,1.45,2.27,.92,3.33,3.72,4.54,5.46,1.21,1.74,1.79,3.53,1.79,3.53,.71,1.09,1.2,2.02,1.52,2.81,3.47,5.72,5.84,11.83,7.92,18.02,1.33,3.84,1.54,7.3,.78,7.42-.48,.07-1.27-1.42-2.17-3.67-.07,.14-.16,.23-.28,.26-.53,.11-1.45-1.41-2.4-3.68,0,.77-.15,1.28-.44,1.36-.56,.16-1.47-1.25-2.28-3.32-.05,.64-.21,1.05-.49,1.13-.48,.13-1.17-.77-1.8-2.2-.25,.36-.72,.25-1.2-.17-.72-.63-1.21-1.21-2.41-2.17-1.21-.97-5.22-4.54-7.39-6.09-2.17-1.55-5.07-1.55-6.76-1.79-1.69-.24-2.95-.53-2.95-.53,0,0-3.33,3.62-4.01,4.25-.68,.63-1.59,1.79-1.84,3.28-.24,1.5-1.01,8.74-1.83,11.59-.82,2.85-1.93-.63-2.66-2.08-.72-1.45-3.04-3.86-4.68-4.3-1.64-.44-4.35,.68-6.33,1.01-1.98,.34-4.01,.24-3.04-1.3,.97-1.55,2.61-3.48,4.44-4.97,1.84-1.5,5.94-6.81,6.62-7.68,.68-.87,1.16-3.82,1.16-3.82-.58-.39-5.89-3.67-5.89-3.67,0,0-.97,0-1.45-.34-.48-.34-.58-.68-.58-.68,0,0-.43,.05-1.06-.1-.63-.14-1.01-.77-1.3-.77s-1.79-.14-2.41-.19c-.63-.05-.92-.34-1.59-.39-.68-.05-.53-.63-.53-.63,0,0-.34,.29-.77,.24-.44-.05-.48-.63-.48-.63,0,0-.87,.39-1.45,.39s-.58-.53-.58-.53c0,0-1.3,.34-1.83,.34-.26,0-.73-.18-1.14-.37-.08,.05-.16,.09-.24,.14-.98,.61-1.98,.85-2.53,.38-.13-.11-.2-.27-.22-.46-.2,.13-.4,.26-.61,.41-.82,.61-1.82,.76-2.32,.24-.2-.21-.27-.52-.22-.85-.16,.08-.31,.17-.47,.26-1.03,.63-2.07,.83-2.6,.34-.19-.17-.24-.45-.18-.77C2.09,15.27,.29,15.64,.03,15.12c-.32-.64,1.88-2.42,4.99-3.93Z"/></svg>