<?xml version="1.0" encoding="UTF-8"?><svg id="Isolation_Mode" xmlns="http://www.w3.org/2000/svg" viewBox="0 0 40 66.89"><defs><style>.cls-1{fill:#fff;}</style></defs><path class="cls-1" d="M39.81,.05c-.56,.86-2.25,3.24-4.43,4.47-2.7,1.53-5.76,3.19-8.95,4.14-3.19,.94-9.72,3.01-14.35,6.21C7.44,18.07,3.25,24.09,1.68,29.13c-1.48,4.74-1.33,12.36-.78,14.47,.03,.13,.21,.16,.28,.04,1.1-1.78,7.14-11.42,11.66-15.78,4.78-4.61,11.76-10.38,17.64-12.76,.12-.05,.2,.11,.1,.18-1.73,1.25-6.56,4.86-10.9,9.2-4.67,4.67-11.37,14.2-14.32,20.01,0,.01-.02,.02-.03,.03-.55,1.14-3.2,5.04-5.33,22.34H3.75s.57-13.21,5.22-22.96c.11-.04,.2-.09,.31-.13,2.97-.94,15.03-3.64,19.8-7.33,4.77-3.69,7.74-12.33,8.68-18.27,.89-5.57,2.09-15.6,2.24-18.09,0-.11-.13-.15-.19-.06Z"/></svg>