<?xml version="1.0" encoding="UTF-8"?><svg id="Isolation_Mode" xmlns="http://www.w3.org/2000/svg" viewBox="0 0 75 67.02"><defs><style>.cls-1{fill:#fff;}</style></defs><path class="cls-1" d="M64.9,3.24l-14.74,31.04H24.85s-.02,0-.02,0L10.1,3.24C6.96-3.36-2.51,1.13,.63,7.73L16.75,41.69c1.14,2.39,3.06,5.22,5.4,7.89h0v17.44h30.38v-17.08h0c2.49-2.79,4.53-5.76,5.72-8.26L74.37,7.73c3.13-6.6-6.33-11.1-9.47-4.5Z"/><path class="cls-1" d="M37.44,30.87c-6.67,0-12.06-5.44-12.06-12.15,0-6.71,5.4-12.15,12.06-12.15,6.67,0,12.07,5.44,12.07,12.15,0,6.71-5.4,12.15-12.07,12.15Z"/></svg>