<?xml version="1.0" encoding="UTF-8"?><svg id="Isolation_Mode" xmlns="http://www.w3.org/2000/svg" viewBox="0 0 75 41.13"><defs><style>.cls-1{fill:#fff;}</style></defs><polygon class="cls-1" points="49.03 22.4 73.82 0 44.4 0 0 22.4 48.46 22.4 49.03 22.4"/><polygon class="cls-1" points="75 0 75 0 75 0 75 0"/><g><path class="cls-1" d="M38.21,29.7c.72-.17,1.43-.32,2.1-.48,.58-.14,1.17-.18,1.8-.07,.59,.1,1.16,.21,1.81,.33-1.23,.37-2.35,.7-3.47,1.04,.93,.23,1.57,.23,2.55,0,1.31-.3,2.2-.73,2.93-1.24-3-.55-7-.51-8.64,.08,.29,.11,.58,.22,.91,.34Z"/><path class="cls-1" d="M45.21,34.46c-2.03-.3-3.83-.15-6,.49,2.2,.31,3.24,.22,6-.49Z"/><path class="cls-1" d="M42.54,29.49c-1.77-.33-2.59,.24-3.86,.41,.26,.11,.47,.18,.63,.27,.45,.23,.94,.21,1.42,.03,.6-.22,1.17-.45,1.81-.7Z"/><path class="cls-1" d="M17.99,33.41c.7,.1,1.49,.11,2.24,.16,0-.01,.01-.03,.02-.04,.24,0,.48,0,.72,0,1.39-.04,2.74-.14,3.86-.46,.84-.24,.78-.53-.19-.69-.59-.1-1.25-.16-1.9-.18-1.75-.07-3.46,.02-4.98,.36-.44,.1-.97,.32-.93,.47,.03,.14,.68,.32,1.16,.39Zm2.64-.73c.6-.04,1.25-.01,1.88,0,.16,0,.41,.08,.42,.14,.01,.05-.18,.15-.34,.17-.59,.07-1.21,.12-1.95,.19-.41-.08-.84-.16-1.28-.24,.42-.09,.82-.23,1.27-.26Z"/><path class="cls-1" d="M48.27,23.95h-7.94c-1.27,0-2.55,0-3.82,0-.11,0-.21,0-.32,0h-13.1c-1.37,0-2.74,0-4.11,0-.18,0-.35,0-.52,0H0v17.14H.21c.27,.02,.51,.03,.74,.03,1.92,0,3.83,0,5.75,0,.19,0,.39,0,.58-.02h3.48c-.06,0-.12,0-.18,.01H29.18c-.09,0-.17,0-.26-.01h5.63c.14,0,.28,.01,.43,.01,4.15,.05,8.3,.01,12.46,.01,.28,0,.56,0,.81-.01h0s.21-.01,.21-.01V23.95h-.19Zm-3.22,16.22h-4.67c-.51-.02-1.03-.04-1.54-.07-6.42-.39-12.87-.42-19.33-.22-4.97,.16-9.89,.11-14.74-.35-1.27-.12-2.56-.23-3.86-.34v-.45c5.58,.54,11.2,.94,17.02,.82,2.1-.04,4.2-.08,6.29-.16,4.63-.18,9.17,0,13.72,.31,3.11,.21,6.24,.21,9.33-.1,.1-.01,.19-.02,.27-.03v.44c-.83,.07-1.66,.13-2.49,.16ZM1.75,24.87h7.27c-.63,.02-1.27,.04-1.9,.06-2.1,.05-4.2,.08-6.2,.34v-.33c.28-.02,.56-.05,.84-.07Zm45.79,1.75c-1.88-.18-3.77-.34-5.7-.06-1.86,.27-3.71,.54-5.64,.82,.23,0,.39,.02,.54,0,1.61-.1,3.24-.18,4.83-.31,2.14-.18,4.15-.17,5.96,.34v.35c-1.88-.43-3.9-.59-6.14-.3-3.71,.48-7.33,.27-10.92-.17-.18-.02-.33-.06-.5-.1,1.74-.05,3.48-.03,5.11-.17,1.66-.14,3.21-.44,4.81-.67,2.29-.33,4.62-.42,7.02-.15,.2,.02,.41,.04,.63,.05v.37Zm0,2.83c-.19-.02-.42-.04-.72-.06-.68,.33-1.27,.67-2.03,.96-1.97,.75-3.96,.75-5.99,.02-.93-.34-1.79-.7-2.76-1.09,3.59-1.05,7.53-.6,11.49-.16v.33Zm-9.21-1.54c3.13-.03,6.34-.17,9.21,.45v.66c-.46-.32-1.24-.48-2.16-.54-1.28-.09-2.57-.16-3.87-.18-3.66-.07-7.33,.03-11-.17-6.99-.36-13.91-.14-20.75,.43-3.14,.26-6.16,.66-8.85,1.31v-.52c1.02-.18,1.99-.35,2.98-.49,3.76-.53,7.69-.82,11.68-1,4.66-.22,9.34-.31,14.01-.08,2.92,.14,5.82,.16,8.75,.13ZM.91,30.87c.34-.05,.66-.1,.97-.16,1.39-.26,2.75-.54,4.14-.8,5.92-1.13,12.21-1.71,18.95-1.55,4.89,.11,9.14,.75,12.58,2.02,.31,.12,.61,.24,.92,.36,1.39,.53,3.04,.71,4.99,.46,1.35-.17,2.69-.35,4.08-.53v.42c-1.19,.15-2.32,.29-3.45,.43-2.91,.37-4.65,.22-6.7-.61-4.03-1.63-9.14-2.33-15.15-2.23-5.85,.1-11.24,.76-16.35,1.75-1.64,.32-3.33,.6-4.99,.91v-.46Zm40.12-5.39c-2.34,.03-4.52,.27-6.47,.73-3.29,.76-6.88,1.04-10.77,1.03-2.81,0-5.63,.09-8.44,.18-4.93,.16-9.64,.71-14.45,1.08v-.36c.21-.02,.41-.03,.6-.05,3.14-.29,6.25-.63,9.42-.87,4.51-.34,9.11-.47,13.73-.45,3.13,.02,6.06-.24,8.74-.83,1.71-.38,3.59-.62,5.6-.7,1.27-.05,2.55-.06,3.82-.08,1.61-.02,3.19-.09,4.72-.23v.28c-2.16,.22-4.34,.24-6.51,.27Zm-18.95,.32c-2.82,.12-5.69,.19-8.44,.42-3.46,.29-6.92,.52-10.45,.61-.75,.02-1.51,.04-2.27,.05v-.45c3.87-.07,7.62-.16,11.25-.54,3.43-.35,6.98-.39,10.48-.56,1.78-.09,3.49-.24,5.13-.46h3.1c-2.74,.49-5.66,.8-8.78,.93ZM.91,37.72c2.71,.43,5.56,.66,8.51,.66,4.97,0,9.95-.08,14.92-.08,3.91,0,7.82,.06,11.72,.13,3.45,.06,6.9,.16,10.35,.23,.38,0,.76,0,1.13-.03v.44c-2.38-.01-4.75,0-7.12-.05-4.01-.08-8-.27-12.01-.29-5.13-.02-10.26,.09-15.4,.12-2.87,.02-5.76,.01-8.56-.25-1.18-.11-2.34-.25-3.54-.39v-.49Zm46.63-.55c-.85,.08-1.67,.16-2.47,.25-3.26,.37-6.51,.44-9.76-.03-1.96-.28-4-.41-6.1-.33-2.19,.08-4.37,.21-6.56,.32-2.93,.14-5.89,.3-8.82,.08-3.01-.22-5.97-.54-8.96-.8-.92-.08-1.89-.13-2.83-.12-.5,0-.86,.01-1.14,.03v-.3c1.02-.01,2.01-.03,2.97,.02,1.25,.07,2.46,.23,3.69,.36,3.36,.35,6.75,.65,10.28,.52,2.49-.09,4.98-.18,7.43-.36,4.08-.29,8-.26,11.88,.35,1.07,.17,2.38,.18,3.58,.2,2.39,.04,4.56-.32,6.8-.54v.36Zm-31.43-1.01c-3.22-.45-6.55-.74-10.01-.78-1.73-.02-3.47,.01-5.19,.03v-.41c.84,0,1.69,0,2.37-.1,1.31-.21,2.5-.54,3.64-.86,1.09-.31,2.25-.49,3.61-.4,2.11,.14,4.22,.29,6.28,.5,1.87,.19,3.72,.42,5.69,.37,3.01-.09,5.24-.64,6.69-1.58,.65-.42,.42-.64-.67-.92-2.67-.68-5.64-.79-8.76-.55-3.26,.25-6.09,.82-8.8,1.49-.37,.09-.86,.17-1.3,.17-2.15,.02-4.14,.22-5.97,.63-.88,.19-1.72,.42-2.65,.58-.05,0-.09,.02-.13,.03v-.41c.09-.02,.19-.03,.27-.05,2.52-.56,5.34-.84,8.14-1.14,.5-.05,.99-.14,1.42-.24,2.34-.57,4.79-1.06,7.51-1.36,3.94-.42,7.72-.37,11.17,.53,1.35,.35,1.67,.77,1.02,1.32-.62,.53-1.68,.92-2.97,1.24-2.82,.7-5.92,.71-9.11,.44-2.12-.18-4.22-.39-6.34-.56-1.19-.09-2.45-.18-3.58,.08-.89,.2-1.69,.45-2.65,.71,1.08,.04,1.99,.08,2.91,.1,.18,0,.4-.04,.56-.08,.99-.27,2.13-.36,3.32-.28,1.8,.13,3.59,.27,5.35,.45,5.29,.55,9.61-.05,13.31-1.4,.88-.32,1.41-.72,1.26-1.19-.18-.6-1.17-1.01-2.52-1.32-2.69-.61-5.69-.84-8.84-.78-3.86,.08-7.34,.57-10.53,1.35-1.07,.26-2.19,.51-3.32,.73-2,.4-4.13,.66-6.38,.77v-.44c.09,0,.19,0,.28-.01,3.11-.19,5.77-.74,8.41-1.32,1.78-.39,3.64-.77,5.6-1.01,4.64-.57,9.34-.63,13.95,.08,2.33,.36,4.13,.9,4.63,1.85,0,.01,.07,.02,.01,0,1.37-.17,2.68-.34,4.07-.51-2.5-.36-4.63-.91-6.6-1.53-2.73-.86-5.92-1.11-9.43-.99-3.75,.12-7.15,.62-10.48,1.21-3.46,.61-6.97,1.19-10.44,1.8v-.46c.51-.07,.98-.13,1.43-.21,2.95-.52,5.88-1.06,8.84-1.58,4.16-.74,8.52-1.18,13.22-1.07,2.78,.07,5.31,.35,7.44,1.03,.83,.27,1.73,.5,2.6,.76,3.94,1.15,8.42,1.25,13.1,.95v.3c-.11,0-.22,0-.33,.01-1.48,.04-2.98,.14-4.45,.11-2.09-.05-4.08,.08-6.06,.27-1.6,.15-2.92,.45-3.65,1.01-.14,.11-.35,.22-.59,.3-3.22,1.18-7.04,1.92-11.76,1.81-2.1-.05-4.17-.27-6.24-.43-1.25-.1-2.47-.22-3.8-.13,1.94,.24,3.86,.44,5.69,.71,4.37,.65,8.5,.44,12.43-.4,1.63-.35,3.14-.78,4.7-1.17,.15-.04,.24-.1,.36-.15,.56-.2,1.05-.44,1.69-.6,3.66-.94,7.64-1.27,12-.83v.29s-.09-.01-.14-.02c-4.28-.4-8.15-.07-11.71,.82-.06,.02-.09,.05-.23,.13,4.03-.6,8.04-.66,12.08-.45v.42c-2.52-.19-5.02-.25-7.55-.1-3.63,.22-6.72,.85-9.62,1.63-4.33,1.18-9.09,1.5-14.26,.79Zm-1.5-3.06c-.08-.34,.6-.56,1.35-.68,1.36-.2,2.76-.39,4.19-.5,1.75-.14,3.54-.12,5.28,.07,.92,.1,1.94,.21,2.08,.61,.15,.42-.81,.61-1.67,.78-1.85,.37-3.89,.48-6.01,.55-1.17-.08-2.35-.13-3.49-.25-.81-.08-1.65-.23-1.73-.59Zm32.93,2.67c-.54,.06-1.04,.11-1.53,.18-3.06,.42-6.12,.54-9.37,.24-1.64-.15-3.42-.14-5.13-.13-.93,0-1.86,.12-2.8,.19,5.47-1.7,11.5-2.67,18.83-1.99v.37c-.77-.13-1.6-.14-2.4,.09-.56,.16-1.16,.31-1.81,.42-.63,.11-1.34,.23-2.02,.23-1.33,0-2.66-.1-4.15-.16,.63-.21,1.16-.39,1.68-.56l-.14-.09c-1.84,.32-3.68,.63-5.67,.98,2.11,.16,3.96,.33,5.84,.42,1.21,.06,2.52,.05,3.7-.05,1.64-.15,3.23-.37,4.97-.59v.46Z"/></g><g><path class="cls-1" d="M70.25,13.33c.52-.41,1.04-.84,1.61-1.3-.35-.11-1.39,.82-2.12,1.28-.02,.1-.03,.16-.06,.24-.09,.23,.15,.1,.57-.23Z"/><path class="cls-1" d="M57.35,22.06c.24,.03,.55-.1,.83-.16,0-.02,.02-.04,.03-.07,.1-.05,.19-.08,.29-.14,.58-.33,1.18-.74,1.84-1.46,.49-.54,.55-1.02,.34-1.05-.13-.02-.34,.02-.59,.11-.67,.23-1.67,.59-2.46,1.41-.23,.24-.54,.7-.59,.94-.04,.23,.15,.4,.31,.42Zm1.44-1.67c.28-.18,.54-.25,.79-.33,.07-.02,.13,.06,.1,.14-.02,.08-.16,.27-.23,.33-.29,.23-.57,.42-.91,.68-.13-.05-.27-.1-.42-.15,.22-.23,.45-.53,.66-.66Z"/><path class="cls-1" d="M75,1.07l-24.96,22.21v15.99l8.28-9.67c.6-.7,1.22-1.42,1.83-2.14l7.47-8.71h0s0,0,0,0l7.37-8.6V1.07Zm-.91,8.75l-.06,.08c-.09-.01-.19-.01-.27,0-.51,.1-1.02,.23-1.54,.45-1.46,.62-2.98,1.51-4.34,1.95-2.6,.84-5.3,2.67-8.72,4.79-.77,.48-1.6,.98-2.47,1.52l.65-.58c1.8-1.14,3.36-2.14,4.83-3.07,2.02-1.27,3.82-2.42,5.52-3.03,1.06-.38,2.2-.94,3.36-1.59,1.04-.59,2.07-1.36,3.05-1.26v.73Zm-4.85,5.66c-.2,.09-.4,.18-.58,.24-.84,.31-1.88,.84-2.9,1.48-.82,.52-1.63,1.2-2.38,2.19-.15,.19-.31,.39-.48,.57-2.21,2.41-3.96,4.38-5.57,5.18-.71,.36-1.35,.43-2.05,.58-.42,.09-.83,.13-1.34,.56,.65,.01,1.27-.05,1.8,.02,1.26,.17,2.61-1.1,4.61-3.22,.83-.88,1.72-1.83,2.64-2.74,.09-.08,.17-.2,.26-.29,.38-.41,.78-.86,1.18-1.22,1.67-1.52,3.28-2.54,4.55-3.06l-.38,.45c-1.23,.53-2.75,1.52-4.33,2.97-.04,.03-.08,.09-.21,.24,1.43-1.13,2.71-1.86,3.82-2.37l-.46,.54c-.44,.2-.92,.45-1.44,.77-1.67,1.02-3.42,2.54-5.04,4.35-2.42,2.7-3.95,4.32-5.42,4.23-.92-.05-2.05,.13-3.28,.77-.42,.22-.85,.48-1.27,.75v-.72c.11-.08,.21-.18,.3-.3,.5-.64,.99-1.44,1.49-2.22,.48-.74,.99-1.28,1.51-1.39,.81-.16,1.6-.32,2.31-.37,.65-.05,1.23-.04,2.01-.52,1.19-.74,2.39-2.05,3.66-3.76,.57-.77,.69-1.05,.57-1.21-.3-.4-1.42,0-3.07,.89-1.71,.92-3.82,2.09-5.13,3.73-.18,.22-.4,.44-.58,.53-.9,.44-1.76,1.15-2.53,2.21-.19,.27-.38,.55-.56,.82v-.67c.91-1.16,1.95-2.03,3.02-2.91,.22-.18,.45-.42,.66-.68,1.15-1.39,3.3-2.25,4.84-3.13,2.22-1.27,3.76-1.92,4.12-1.37,.14,.22-.21,.72-.89,1.69-.65,.92-1.35,1.72-2.06,2.48-1.56,1.65-2.64,2.31-3.71,2.51-.71,.13-1.44,.19-2.21,.32-.43,.08-.92,.18-1.41,.83-.38,.51-.73,1.1-1.12,1.75,.39-.15,.72-.27,1.05-.42,.07-.03,.16-.15,.22-.25,.43-.66,.89-1.04,1.31-1.14,.64-.14,1.25-.27,1.81-.33,1.69-.18,3.42-2.08,5.93-4.84,.6-.66,1.13-1.35,1.44-2.04,.4-.87,.69-1.15,.49-1.3-.4-.3-1.38-.04-2.79,.63-1.74,.82-3.85,2.1-6.22,3.64-.8,.52-1.73,.96-2.26,1.56-.75,.84-1.47,1.57-2.21,2.15v-.77c1.23-.88,2.69-2.01,4.38-3.09,1.27-.81,2.55-1.62,3.69-2.29,2.71-1.59,4.75-2.57,5.83-2.5,.55,.03,.28,.25-.29,1.59,0,.02,.01,.02,0,0,.73-.51,1.55-.94,2.36-1.42-.64-.02-.88-.36-.95-.81-.1-.62-1.13-.32-2.75,.49-1.74,.87-3.81,2.15-5.99,3.51-.9,.56-1.91,1.06-2.89,1.57,1.14-.7,2.28-1.4,3.41-2.11,2.72-1.7,5.11-3.1,6.95-3.86,1.09-.45,1.8-.57,1.87-.08,.03,.19,.12,.34,.18,.51,.2,.6,1.28,.38,2.8-.3l-.32,.37Zm-2.72,3.17c-.49,.28-1.15,.8-2.01,1.64,.28,0,.53-.11,1-.45l-.4,.46c-.09,.06-.17,.12-.23,.16-.47,.26-.86,.4-1.34,.62,.42-.44,.78-.81,1.14-1.17,.01-.03,.02-.07,.03-.1-1,.83-1.95,1.67-2.93,2.6,.62-.2,1.11-.32,1.67-.59,.22-.1,.47-.25,.74-.43l-.58,.68c-.43,.28-.81,.48-1.14,.58-.42,.12-1.05,.52-1.63,.88-.32,.2-.73,.59-1.09,.89,2.38-2.97,5.1-5.14,7.15-6.18l-.36,.42Zm-7.6,8.87c-.33,.25-.66,.52-1.01,.81-1.4,1.16-2.88,2.54-4.3,3.8-.79,.71-1.56,1.38-2.32,1.57-.11,.03-.22,.05-.33,.06v-.77c.58-.05,1.16-.33,1.77-.83,1.42-1.15,2.88-2.43,4.3-3.57,.97-.78,1.92-1.49,2.84-2.19l-.95,1.11Zm-7.64,7.75c-.1,.03-.21,.07-.31,.1v-.77c1.25-.39,2.37-1.09,3.68-2.45,.56-.58,1.11-1.14,1.71-1.77,.29-.31,.58-.59,.85-.85l-3.22,3.76c-.93,.97-1.79,1.7-2.7,1.98Zm10.17-10.7c-.18,.09-.34,.15-.48,.15-.36,.02-.93,.26-1.65,.85-.76,.61-1.52,1.29-2.25,1.95-.98,.88-1.93,1.81-2.76,2.1-.85,.3-1.71,.4-2.66,.6-.22,.04-.45,.12-.68,.24v-.5c.13-.08,.26-.15,.39-.2,.41-.15,.8-.12,1.17-.17,1.03-.12,1.97-.38,3.14-1.37,.82-.7,1.66-1.4,2.56-2.2,1.5-1.34,2.85-2.11,3.52-2.06,.07,0,.18-.04,.31-.1l-.62,.72Zm-5.35-2.41c.09-.55,.46-1.05,.82-1.37,.66-.58,1.66-1,2.42-1.4,.92-.49,1.67-.8,2.18-.87,.27-.04,.46-.12,.25,.47-.22,.62-.75,1.11-1.21,1.54-.99,.93-1.85,1.51-2.71,2.02-.42,.1-.87,.24-1.27,.27-.29,.02-.58-.07-.48-.65Zm13.98-7.67c-1.66,1.02-2.22,1.11-2.09,.39,.26-1.43-1.25-1.43-3.8-.11-2.48,1.29-5.53,3.19-9.01,5.37-.26,.16-.51,.32-.77,.47l.73-.65c.26-.16,.51-.32,.77-.48,3.99-2.5,6.98-4.62,9.61-5.73,1.9-.81,3.27-.67,3.19,.38,0,.1-.03,.2-.04,.3-.06,.46,.44,.4,1.58-.3,.1-.06,.2-.13,.3-.19l-.46,.54Zm2.9-3.38c-.81,.19-2.08,.88-3.16,1.73-.01,.09-.02,.18-.03,.28,.51-.36,.99-.7,1.47-1.05,.42-.3,.71-.47,.85-.45,.12,.02,.23,.06,.35,.09l-.06,.07c-.92,.71-1.78,1.36-2.63,2,.12,.13,.39,.02,1.08-.47,.23-.16,.45-.33,.67-.5l-.41,.48c-1.26,.93-1.89,1.13-1.87,.61,.01-.28,.09-.6,.15-.93,1.89-1.41,3-1.95,3.88-2.2l-.28,.33Zm-6.27-1.38c.35-.3,.7-.64,1.05-1l1.6-1.43c-1.02,1.32-2.11,2.39-3.17,3.25-1.03,.83-2.05,1.6-3.22,2.55-.31,.25-.63,.5-.94,.74l3.29-2.93c.47-.38,.93-.77,1.39-1.18Zm3.87,.07c.64-.51,1.27-.99,1.89-1.57,.6-.56,1.12-.93,1.62-.9v.68c-.54-.06-1.09,.22-1.77,.94-1.5,1.61-2.94,1.98-4.06,2.03-.06,0-.09-.03-.14-.04,.67-.46,1.32-.8,1.97-1.38,.66-.59,1.31-1.43,1.92-2.18,.74-.91,1.4-1.55,2.08-1.78v.64c-.46,.14-.92,.41-1.44,1.05-.71,.87-1.45,1.74-2.28,2.62,.09-.04,.14-.05,.2-.1Zm-11.13,6.33c.53-.36,1.05-.72,1.55-1.07,2.04-1.43,3.76-2.64,5.41-3.62,1.12-.67,2.35-1.7,3.5-3.28,.74-1.01,1.41-1.87,2.08-2.48,.42-.39,.82-.72,1.23-1.05,.29-.24,.58-.5,.87-.8v.49c-.5,.51-1,.89-1.5,1.29-.77,.61-1.53,1.53-2.38,2.72-1.43,2-2.97,3.18-4.41,4-1.05,.59-2.17,1.34-3.31,2.06-1.2,.76-2.54,1.67-3.95,2.58l.92-.82Z"/></g></svg>