<?xml version="1.0" encoding="UTF-8"?><svg id="Isolation_Mode" xmlns="http://www.w3.org/2000/svg" viewBox="0 0 75 74.6"><defs><style>.cls-1{fill:#fff;}</style></defs><path class="cls-1" d="M28.29,24.3l7.51,13-7.51,13H13.28l-7.51-13,7.51-13h15.01m2.89-5H10.39L0,37.3l10.39,18H31.18l10.39-18-10.39-18h0Z"/><path class="cls-1" d="M61.72,5l7.51,13-7.51,13h-15.01l-7.51-13,7.51-13h15.01m2.89-5h-20.79l-10.39,18,10.39,18h20.79l10.39-18L64.61,0h0Z"/><path class="cls-1" d="M61.72,43.6l7.51,13-7.51,13h-15.01l-7.51-13,7.51-13h15.01m2.89-5h-20.79l-10.39,18,10.39,18h20.79l10.39-18-10.39-18h0Z"/></svg>