<?xml version="1.0" encoding="UTF-8"?><svg id="Isolation_Mode" xmlns="http://www.w3.org/2000/svg" viewBox="0 0 75 39.82"><defs><style>.cls-1{fill:#fff;}</style></defs><path class="cls-1" d="M38.01,28.74c-15.43,0-29.4,5.38-37.47,9.26-.92,.44-.6,1.82,.41,1.82H74.04c1,0,1.33-1.35,.44-1.8-7.62-3.87-21.02-9.27-36.47-9.27Z"/><g><g><path class="cls-1" d="M34.42,1.53c1.12,4.83,2.05,9.59,2.57,14.61,.64,4.96,.98,10.13,2.01,15.03-.16-5.17-.45-10.24-.99-15.38-.64-5.07-1.71-10.15-3.59-14.27Z"/><path class="cls-1" d="M38.54,4.15c.35,4.73,1.1,9.27,1.8,13.83,.83,4.5,1.62,9.02,2.81,13.35-.35-4.73-1.1-9.28-1.81-13.83-.83-4.5-1.62-9.02-2.81-13.35Z"/><path class="cls-1" d="M42.22,4.46c-.12,4.59,.17,9.1,.42,13.62,.37,4.5,.71,9,1.45,13.41,.12-4.58-.17-9.1-.42-13.62-.37-4.49-.71-8.99-1.45-13.41Z"/><polygon class="cls-1" points="45.98 2.31 45.63 5.93 45.32 9.53 44.75 16.74 44.26 23.96 44.04 27.57 43.86 31.17 44.21 27.57 44.53 23.96 45.1 16.75 45.59 9.54 45.8 5.93 45.98 2.31"/><path class="cls-1" d="M32.53,5.36c1.31,4.71,2.96,9.05,4.58,13.42,1.72,4.25,3.42,8.54,5.45,12.45-1.31-4.71-2.96-9.05-4.58-13.42-1.72-4.25-3.42-8.54-5.45-12.45Z"/><path class="cls-1" d="M47.88,1.01c-1,5.03-1.59,10.19-2.22,15.34-.52,5.18-1.06,10.36-1.21,15.66,1-5.03,1.59-10.19,2.23-15.34,.51-5.18,1.06-10.37,1.21-15.67Z"/><path class="cls-1" d="M53.89,3.78c-.84,4.36-1.28,8.82-1.76,13.27-.35,4.48-.74,8.96-.72,13.54,.84-4.35,1.28-8.81,1.75-13.26,.36-4.49,.74-8.96,.73-13.54Z"/><polygon class="cls-1" points="35.48 3.68 36.44 7.22 37.44 10.74 39.49 17.81 41.63 24.86 42.73 28.38 43.86 31.92 42.9 28.38 41.9 24.84 39.85 17.79 37.71 10.73 36.61 7.21 35.48 3.68"/><path class="cls-1" d="M51.46,1.01c-.98,2.2-1.67,4.76-2.17,7.39-.51,2.64-.78,5.36-1.09,8.03-.46,5.4-1.04,10.61-2.29,15.69,.99-2.18,1.7-4.73,2.22-7.36,.52-2.64,.8-5.36,1.11-8.03,.46-5.4,1.01-10.63,2.24-15.72Z"/><path class="cls-1" d="M52.24,3.89c-1.18,4.33-1.97,8.84-2.8,13.35-.71,4.56-1.46,9.1-1.8,13.83,1.19-4.33,1.97-8.85,2.8-13.35,.71-4.56,1.45-9.1,1.8-13.83Z"/><path class="cls-1" d="M34.89,3.19c-.81,4.43-1.22,8.95-1.67,13.46-.32,4.54-.68,9.08-.63,13.71,.81-4.43,1.22-8.95,1.67-13.46,.32-4.54,.68-9.08,.64-13.71Z"/><polygon class="cls-1" points="45.16 2.05 45.34 5.66 45.55 9.27 46.04 16.49 46.62 23.7 46.93 27.31 47.28 30.91 47.1 27.31 46.89 23.7 46.4 16.48 45.83 9.27 45.51 5.66 45.16 2.05"/><path class="cls-1" d="M58.26,5.1c-2.03,3.91-3.72,8.2-5.45,12.45-1.62,4.37-3.27,8.7-4.58,13.42,2.04-3.9,3.73-8.19,5.45-12.45,1.62-4.37,3.27-8.71,4.58-13.42Z"/><polygon class="cls-1" points="39.25 2.9 40.06 6.5 40.89 10.11 42.62 17.33 44.44 24.54 45.37 28.15 46.34 31.76 45.54 28.14 44.71 24.53 42.97 17.31 41.16 10.1 40.22 6.5 39.25 2.9"/><path class="cls-1" d="M36.66,4.63c.82,4.74,2.02,9.19,3.19,13.68,1.27,4.39,2.52,8.8,4.13,12.93-.83-4.74-2.02-9.2-3.19-13.68-1.27-4.39-2.53-8.8-4.13-12.93Z"/><polygon class="cls-1" points="48.57 2.25 48.78 6.05 49.03 9.84 49.56 17.36 50.17 24.86 50.5 28.59 50.87 32.3 50.66 28.5 50.42 24.72 49.89 17.19 49.27 9.7 48.94 5.97 48.57 2.25"/><g><path class="cls-1" d="M38.16,12.28l.52,2.42,.56,2.44,.57,2.43,.58,2.43,.61,2.42c.2,.81,.39,1.62,.61,2.42l.63,2.43,.67,2.43-.52-2.43-.54-2.43-.58-2.42-.57-2.43-.61-2.43-.61-2.43-.64-2.42-.67-2.42Z"/><polygon class="cls-1" points="34.69 12.83 35.65 15.19 36.66 17.56 37.67 19.92 38.7 22.28 39.75 24.64 40.81 26.99 41.89 29.35 43 31.7 42.03 29.34 41.03 26.98 40.01 24.62 38.99 22.26 37.93 19.91 36.88 17.55 35.79 15.18 34.69 12.83"/></g><g><polygon class="cls-1" points="45.32 5.13 44.39 8.32 43.49 11.51 42.62 14.7 41.75 17.9 40.91 21.09 40.08 24.3 39.27 27.5 38.49 30.7 39.42 27.52 40.33 24.33 41.2 21.13 42.07 17.93 42.9 14.74 43.73 11.54 44.55 8.34 45.32 5.13"/><polygon class="cls-1" points="40.98 5.49 40.55 8.65 40.15 11.81 39.77 14.98 39.41 18.14 39.06 21.31 38.73 24.49 38.42 27.65 38.14 30.83 38.57 27.67 38.97 24.51 39.35 21.34 39.71 18.17 40.06 15 40.39 11.83 40.7 8.66 40.98 5.49"/><polygon class="cls-1" points="36.63 5.85 36.7 8.98 36.81 12.11 36.93 15.26 37.06 18.39 37.22 21.54 37.39 24.67 37.57 27.81 37.8 30.95 37.72 27.81 37.63 24.68 37.49 21.54 37.37 18.41 37.21 15.26 37.04 12.12 36.85 8.98 36.63 5.85"/><polygon class="cls-1" points="32.29 6.19 32.86 9.31 33.47 12.42 34.08 15.54 34.72 18.64 35.38 21.75 36.04 24.86 36.73 27.97 37.44 31.07 36.88 27.97 36.27 24.85 35.65 21.75 35.02 18.64 34.37 15.52 33.7 12.42 33.01 9.31 32.29 6.19"/></g><polygon class="cls-1" points="46.01 1.92 45.77 5.53 45.56 9.14 45.21 16.36 44.93 23.56 44.82 27.18 44.75 30.79 45 27.18 45.2 23.57 45.56 16.36 45.83 9.14 45.94 5.54 46.01 1.92"/><polygon class="cls-1" points="36.57 2.81 37.11 6.36 37.7 9.91 38.92 17 40.23 24.1 40.91 27.65 41.63 31.19 41.09 27.64 40.5 24.09 39.28 17 37.97 9.89 37.28 6.35 36.57 2.81"/></g><g><path class="cls-1" d="M45.99,8c1.12,4.83,2.05,9.59,2.57,14.61,.64,4.96,.98,10.13,2.01,15.03-.16-5.17-.45-10.24-.99-15.38-.64-5.07-1.71-10.15-3.59-14.27Z"/><path class="cls-1" d="M50.11,10.63c.35,4.73,1.1,9.27,1.8,13.83,.83,4.5,1.62,9.02,2.81,13.35-.35-4.73-1.1-9.28-1.81-13.83-.83-4.5-1.62-9.02-2.81-13.35Z"/><path class="cls-1" d="M53.79,10.93c-.12,4.59,.17,9.1,.42,13.62,.37,4.5,.71,9,1.45,13.41,.12-4.58-.17-9.1-.42-13.62-.37-4.49-.71-8.99-1.45-13.41Z"/><polygon class="cls-1" points="57.55 8.79 57.2 12.4 56.89 16 56.32 23.22 55.82 30.43 55.61 34.04 55.43 37.64 55.78 34.05 56.1 30.43 56.67 23.22 57.16 16.02 57.37 12.4 57.55 8.79"/><path class="cls-1" d="M44.1,11.83c1.31,4.71,2.96,9.05,4.58,13.42,1.72,4.25,3.42,8.54,5.45,12.45-1.31-4.71-2.96-9.05-4.58-13.42-1.72-4.25-3.42-8.54-5.45-12.45Z"/><path class="cls-1" d="M59.45,7.49c-1,5.03-1.59,10.19-2.22,15.34-.52,5.18-1.06,10.36-1.21,15.66,1-5.03,1.59-10.19,2.23-15.34,.51-5.18,1.06-10.37,1.21-15.67Z"/><path class="cls-1" d="M65.46,10.25c-.84,4.36-1.28,8.82-1.76,13.27-.35,4.48-.74,8.96-.72,13.54,.84-4.35,1.28-8.81,1.75-13.26,.36-4.49,.74-8.96,.73-13.54Z"/><polygon class="cls-1" points="47.05 10.15 48.01 13.69 49.01 17.22 51.06 24.28 53.2 31.33 54.3 34.86 55.43 38.39 54.47 34.85 53.47 31.32 51.42 24.26 49.28 17.21 48.18 13.68 47.05 10.15"/><path class="cls-1" d="M63.03,7.49c-.98,2.2-1.67,4.76-2.17,7.39-.51,2.64-.78,5.36-1.09,8.03-.46,5.4-1.04,10.61-2.29,15.69,.99-2.18,1.7-4.73,2.22-7.36,.52-2.64,.8-5.36,1.11-8.03,.46-5.4,1.01-10.63,2.24-15.72Z"/><path class="cls-1" d="M63.81,10.37c-1.18,4.33-1.97,8.84-2.8,13.35-.71,4.56-1.46,9.1-1.8,13.83,1.19-4.33,1.97-8.85,2.8-13.35,.71-4.56,1.45-9.1,1.8-13.83Z"/><path class="cls-1" d="M46.46,9.66c-.81,4.43-1.22,8.95-1.67,13.46-.32,4.54-.68,9.08-.63,13.71,.81-4.43,1.22-8.95,1.67-13.46,.32-4.54,.68-9.08,.64-13.71Z"/><polygon class="cls-1" points="56.73 8.53 56.91 12.14 57.12 15.74 57.61 22.96 58.19 30.17 58.5 33.79 58.85 37.38 58.67 33.78 58.46 30.17 57.97 22.95 57.4 15.74 57.08 12.14 56.73 8.53"/><path class="cls-1" d="M69.83,11.57c-2.03,3.91-3.72,8.2-5.45,12.45-1.62,4.37-3.27,8.7-4.58,13.42,2.04-3.9,3.73-8.19,5.45-12.45,1.62-4.37,3.27-8.71,4.58-13.42Z"/><polygon class="cls-1" points="50.82 9.37 51.63 12.98 52.46 16.59 54.19 23.81 56 31.02 56.94 34.62 57.91 38.23 57.1 34.61 56.28 31.01 54.54 23.79 52.73 16.57 51.79 12.97 50.82 9.37"/><path class="cls-1" d="M48.23,11.1c.82,4.74,2.02,9.19,3.19,13.68,1.27,4.39,2.52,8.8,4.13,12.93-.83-4.74-2.02-9.2-3.19-13.68-1.27-4.39-2.53-8.8-4.13-12.93Z"/><polygon class="cls-1" points="60.14 8.73 60.35 12.52 60.6 16.31 61.13 23.84 61.74 31.33 62.07 35.06 62.44 38.78 62.23 34.97 61.99 31.19 61.45 23.66 60.84 16.17 60.51 12.44 60.14 8.73"/><g><path class="cls-1" d="M49.73,18.75l.52,2.42,.56,2.44,.57,2.43,.58,2.43,.61,2.42c.2,.81,.39,1.62,.61,2.42l.63,2.43,.67,2.43-.52-2.43-.54-2.43-.58-2.42-.57-2.43-.61-2.43-.61-2.43-.64-2.42-.67-2.42Z"/><polygon class="cls-1" points="46.26 19.3 47.22 21.67 48.23 24.03 49.24 26.39 50.27 28.76 51.32 31.11 52.38 33.46 53.46 35.82 54.57 38.18 53.6 35.82 52.6 33.45 51.58 31.09 50.56 28.73 49.5 26.38 48.45 24.02 47.36 21.66 46.26 19.3"/></g><g><polygon class="cls-1" points="56.89 11.6 55.96 14.79 55.06 17.98 54.19 21.17 53.32 24.37 52.48 27.57 51.64 30.77 50.84 33.97 50.06 37.18 50.99 33.99 51.9 30.8 52.77 27.61 53.64 24.41 54.47 21.21 55.3 18.01 56.12 14.81 56.89 11.6"/><polygon class="cls-1" points="52.55 11.96 52.12 15.12 51.72 18.29 51.34 21.45 50.98 24.62 50.63 27.79 50.3 30.96 49.99 34.13 49.71 37.3 50.14 34.14 50.54 30.98 50.92 27.81 51.28 24.65 51.63 21.48 51.96 18.31 52.27 15.13 52.55 11.96"/><polygon class="cls-1" points="48.2 12.32 48.27 15.45 48.38 18.59 48.5 21.73 48.63 24.87 48.79 28.01 48.96 31.14 49.14 34.29 49.37 37.43 49.29 34.29 49.2 31.15 49.06 28.01 48.94 24.88 48.78 21.73 48.61 18.6 48.42 15.45 48.2 12.32"/><polygon class="cls-1" points="43.86 12.67 44.43 15.78 45.04 18.9 45.65 22.01 46.29 25.11 46.95 28.22 47.61 31.33 48.3 34.44 49.01 37.54 48.45 34.44 47.84 31.32 47.22 28.22 46.59 25.11 45.94 21.99 45.27 18.89 44.58 15.78 43.86 12.67"/></g><polygon class="cls-1" points="57.58 8.4 57.34 12 57.13 15.61 56.78 22.83 56.5 30.04 56.39 33.65 56.32 37.26 56.57 33.65 56.77 30.05 57.13 22.83 57.4 15.61 57.51 12.01 57.58 8.4"/><polygon class="cls-1" points="48.14 9.28 48.68 12.83 49.27 16.38 50.49 23.47 51.8 30.57 52.48 34.12 53.2 37.66 52.66 34.11 52.07 30.56 50.85 23.47 49.54 16.37 48.85 12.82 48.14 9.28"/></g><g><path class="cls-1" d="M28.36,6.45c-1.12,4.83-2.05,9.59-2.57,14.61-.64,4.96-.98,10.13-2.01,15.03,.16-5.17,.45-10.24,.99-15.38,.64-5.07,1.71-10.15,3.59-14.27Z"/><path class="cls-1" d="M24.23,9.07c-.35,4.73-1.1,9.27-1.8,13.83-.83,4.5-1.62,9.02-2.81,13.35,.35-4.73,1.1-9.28,1.81-13.83,.83-4.5,1.62-9.02,2.81-13.35Z"/><path class="cls-1" d="M20.55,9.37c.12,4.59-.17,9.1-.42,13.62-.37,4.5-.71,9-1.45,13.41-.12-4.58,.17-9.1,.42-13.62,.37-4.49,.71-8.99,1.45-13.41Z"/><polygon class="cls-1" points="16.8 7.23 17.15 10.85 17.45 14.45 18.03 21.66 18.52 28.88 18.74 32.49 18.92 36.09 18.56 32.49 18.25 28.88 17.68 21.67 17.19 14.46 16.97 10.85 16.8 7.23"/><path class="cls-1" d="M30.25,10.28c-1.31,4.71-2.96,9.05-4.58,13.42-1.72,4.25-3.42,8.54-5.45,12.45,1.31-4.71,2.96-9.05,4.58-13.42,1.72-4.25,3.42-8.54,5.45-12.45Z"/><path class="cls-1" d="M14.89,5.93c1,5.03,1.59,10.19,2.22,15.34,.52,5.18,1.06,10.36,1.21,15.66-1-5.03-1.59-10.19-2.23-15.34-.51-5.18-1.06-10.37-1.21-15.67Z"/><path class="cls-1" d="M8.88,8.7c.84,4.36,1.28,8.82,1.76,13.27,.35,4.48,.74,8.96,.72,13.54-.84-4.35-1.28-8.81-1.75-13.26-.36-4.49-.74-8.96-.73-13.54Z"/><polygon class="cls-1" points="27.3 8.6 26.34 12.14 25.33 15.66 23.28 22.73 21.15 29.78 20.05 33.3 18.92 36.84 19.88 33.3 20.88 29.76 22.93 22.71 25.07 15.65 26.17 12.13 27.3 8.6"/><path class="cls-1" d="M11.32,5.93c.98,2.2,1.67,4.76,2.17,7.39,.51,2.64,.78,5.36,1.09,8.03,.46,5.4,1.04,10.61,2.29,15.69-.99-2.18-1.7-4.73-2.22-7.36-.52-2.64-.8-5.36-1.11-8.03-.46-5.4-1.01-10.63-2.24-15.72Z"/><path class="cls-1" d="M10.53,8.81c1.18,4.33,1.97,8.84,2.8,13.35,.71,4.56,1.46,9.1,1.8,13.83-1.19-4.33-1.97-8.85-2.8-13.35-.71-4.56-1.45-9.1-1.8-13.83Z"/><path class="cls-1" d="M27.89,8.11c.81,4.43,1.22,8.95,1.67,13.46,.32,4.54,.68,9.08,.63,13.71-.81-4.43-1.22-8.95-1.67-13.46-.32-4.54-.68-9.08-.64-13.71Z"/><polygon class="cls-1" points="17.62 6.97 17.44 10.58 17.22 14.19 16.73 21.4 16.16 28.62 15.84 32.23 15.49 35.83 15.67 32.22 15.89 28.62 16.38 21.4 16.95 14.19 17.27 10.58 17.62 6.97"/><path class="cls-1" d="M4.52,10.02c2.03,3.91,3.72,8.2,5.45,12.45,1.62,4.37,3.27,8.7,4.58,13.42-2.04-3.9-3.73-8.19-5.45-12.45-1.62-4.37-3.27-8.71-4.58-13.42Z"/><polygon class="cls-1" points="23.53 7.82 22.72 11.42 21.89 15.03 20.15 22.25 18.34 29.46 17.41 33.07 16.44 36.68 17.24 33.06 18.07 29.45 19.81 22.23 21.61 15.02 22.55 11.41 23.53 7.82"/><path class="cls-1" d="M26.11,9.55c-.82,4.74-2.02,9.19-3.19,13.68-1.27,4.39-2.52,8.8-4.13,12.93,.83-4.74,2.02-9.2,3.19-13.68,1.27-4.39,2.53-8.8,4.13-12.93Z"/><polygon class="cls-1" points="14.2 7.17 14 10.97 13.75 14.76 13.22 22.28 12.61 29.78 12.28 33.51 11.91 37.22 12.12 33.42 12.36 29.64 12.89 22.11 13.51 14.62 13.84 10.89 14.2 7.17"/><g><path class="cls-1" d="M24.62,17.2l-.52,2.42-.56,2.44-.57,2.43-.58,2.43-.61,2.42c-.2,.81-.39,1.62-.61,2.42l-.63,2.43-.67,2.43,.52-2.43,.54-2.43,.58-2.42,.57-2.43,.61-2.43,.61-2.43,.64-2.42,.67-2.42Z"/><polygon class="cls-1" points="28.09 17.75 27.12 20.11 26.12 22.48 25.1 24.84 24.08 27.2 23.03 29.56 21.97 31.91 20.89 34.27 19.78 36.62 20.74 34.26 21.75 31.9 22.76 29.54 23.79 27.18 24.84 24.83 25.9 22.47 26.99 20.1 28.09 17.75"/></g><g><polygon class="cls-1" points="17.45 10.05 18.39 13.23 19.29 16.43 20.16 19.62 21.03 22.82 21.87 26.01 22.7 29.22 23.51 32.42 24.28 35.62 23.35 32.44 22.45 29.25 21.58 26.05 20.71 22.85 19.87 19.66 19.04 16.46 18.23 13.25 17.45 10.05"/><polygon class="cls-1" points="21.8 10.41 22.23 13.57 22.63 16.73 23.01 19.9 23.37 23.06 23.72 26.23 24.05 29.41 24.35 32.57 24.63 35.75 24.2 32.59 23.81 29.43 23.43 26.26 23.06 23.09 22.72 19.92 22.39 16.75 22.08 13.58 21.8 10.41"/><polygon class="cls-1" points="26.15 10.77 26.07 13.9 25.97 17.03 25.85 20.18 25.71 23.31 25.56 26.46 25.39 29.58 25.21 32.73 24.98 35.87 25.05 32.73 25.15 29.6 25.28 26.46 25.41 23.33 25.57 20.18 25.73 17.04 25.92 13.9 26.15 10.77"/><polygon class="cls-1" points="30.49 11.11 29.92 14.23 29.31 17.34 28.69 20.46 28.06 23.56 27.4 26.67 26.74 29.78 26.05 32.89 25.33 35.99 25.9 32.89 26.5 29.77 27.12 26.67 27.76 23.56 28.41 20.44 29.08 17.34 29.77 14.23 30.49 11.11"/></g><polygon class="cls-1" points="16.77 6.84 17.01 10.45 17.22 14.06 17.57 21.28 17.85 28.48 17.96 32.1 18.02 35.71 17.78 32.1 17.57 28.49 17.22 21.28 16.95 14.06 16.84 10.46 16.77 6.84"/><polygon class="cls-1" points="26.21 7.73 25.67 11.28 25.08 14.83 23.86 21.92 22.54 29.02 21.86 32.56 21.15 36.11 21.69 32.56 22.27 29.01 23.5 21.91 24.81 14.81 25.49 11.27 26.21 7.73"/></g><g><path class="cls-1" d="M17.72,.65c1.43,6.15,2.61,12.2,3.27,18.59,.81,6.31,1.25,12.89,2.55,19.13-.21-6.58-.58-13.04-1.26-19.57-.81-6.45-2.17-12.92-4.57-18.15Z"/><path class="cls-1" d="M22.97,4c.45,6.02,1.4,11.8,2.3,17.6,1.05,5.73,2.06,11.48,3.58,16.99-.45-6.02-1.4-11.8-2.3-17.6-1.05-5.73-2.07-11.47-3.57-16.98Z"/><path class="cls-1" d="M27.65,4.38c-.15,5.84,.21,11.59,.53,17.33,.48,5.72,.9,11.45,1.85,17.07,.15-5.83-.22-11.58-.53-17.33-.48-5.71-.91-11.44-1.85-17.07Z"/><polygon class="cls-1" points="32.43 1.66 31.98 6.25 31.59 10.84 30.86 20.02 30.23 29.2 29.96 33.79 29.73 38.38 30.18 33.8 30.58 29.2 31.31 20.03 31.93 10.85 32.2 6.25 32.43 1.66"/><path class="cls-1" d="M15.31,5.53c1.67,6,3.77,11.52,5.83,17.08,2.19,5.41,4.35,10.87,6.94,15.84-1.66-6-3.76-11.52-5.83-17.08-2.19-5.41-4.35-10.87-6.94-15.85Z"/><path class="cls-1" d="M34.85,0c-1.27,6.4-2.03,12.97-2.83,19.52-.66,6.6-1.35,13.18-1.54,19.93,1.27-6.4,2.03-12.97,2.83-19.52,.65-6.6,1.34-13.19,1.53-19.93Z"/><path class="cls-1" d="M42.5,3.52c-1.07,5.54-1.63,11.22-2.24,16.88-.45,5.7-.94,11.4-.92,17.23,1.07-5.53,1.63-11.22,2.23-16.88,.46-5.71,.94-11.4,.93-17.23Z"/><polygon class="cls-1" points="19.07 3.39 20.29 7.89 21.56 12.38 24.17 21.37 26.89 30.34 28.29 34.83 29.73 39.33 28.51 34.82 27.24 30.32 24.62 21.35 21.9 12.37 20.5 7.88 19.07 3.39"/><path class="cls-1" d="M39.4,0c-1.25,2.79-2.13,6.05-2.77,9.4-.65,3.36-.99,6.82-1.38,10.22-.59,6.87-1.33,13.51-2.92,19.96,1.26-2.78,2.16-6.01,2.82-9.36,.67-3.35,1.02-6.82,1.41-10.22,.59-6.87,1.29-13.52,2.85-20Z"/><path class="cls-1" d="M40.4,3.67c-1.5,5.51-2.51,11.25-3.56,16.98-.91,5.8-1.85,11.58-2.3,17.6,1.51-5.51,2.51-11.26,3.57-16.98,.9-5.8,1.84-11.58,2.29-17.6Z"/><path class="cls-1" d="M18.32,2.77c-1.03,5.63-1.55,11.39-2.13,17.13-.41,5.78-.86,11.55-.81,17.45,1.03-5.64,1.56-11.39,2.12-17.13,.41-5.78,.86-11.55,.81-17.45Z"/><polygon class="cls-1" points="31.38 1.32 31.61 5.92 31.88 10.51 32.51 19.69 33.24 28.87 33.64 33.47 34.09 38.05 33.86 33.46 33.58 28.87 32.96 19.68 32.23 10.5 31.83 5.92 31.38 1.32"/><path class="cls-1" d="M48.05,5.2c-2.59,4.98-4.74,10.43-6.93,15.84-2.07,5.56-4.16,11.08-5.83,17.07,2.59-4.97,4.75-10.43,6.94-15.85,2.06-5.56,4.16-11.08,5.83-17.07Z"/><polygon class="cls-1" points="23.86 2.4 24.89 6.99 25.95 11.58 28.16 20.77 30.46 29.94 31.65 34.53 32.88 39.12 31.86 34.52 30.81 29.93 28.59 20.74 26.3 11.56 25.1 6.98 23.86 2.4"/><path class="cls-1" d="M20.57,4.6c1.05,6.04,2.57,11.7,4.05,17.4,1.62,5.59,3.2,11.2,5.26,16.45-1.05-6.04-2.57-11.71-4.05-17.4-1.62-5.59-3.22-11.2-5.26-16.45Z"/><polygon class="cls-1" points="35.73 1.58 35.99 6.41 36.31 11.23 36.98 20.81 37.76 30.34 38.18 35.09 38.65 39.82 38.38 34.97 38.08 30.17 37.4 20.58 36.61 11.05 36.19 6.3 35.73 1.58"/><g><path class="cls-1" d="M22.48,14.33l.66,3.08,.71,3.1,.72,3.09,.74,3.09,.77,3.08c.25,1.03,.5,2.06,.78,3.09l.8,3.09,.85,3.09-.67-3.09-.69-3.1-.74-3.08-.73-3.09-.77-3.09-.77-3.09-.82-3.08-.85-3.08Z"/><polygon class="cls-1" points="18.06 15.04 19.29 18.05 20.56 21.06 21.86 24.06 23.16 27.07 24.5 30.06 25.85 33.06 27.22 36.06 28.64 39.05 27.4 36.05 26.13 33.04 24.84 30.04 23.53 27.04 22.19 24.04 20.84 21.04 19.46 18.03 18.06 15.04"/></g><g><polygon class="cls-1" points="31.59 5.24 30.4 9.29 29.26 13.36 28.15 17.41 27.04 21.49 25.98 25.55 24.91 29.63 23.89 33.7 22.9 37.78 24.09 33.73 25.24 29.67 26.34 25.6 27.45 21.53 28.51 17.47 29.57 13.39 30.6 9.32 31.59 5.24"/><polygon class="cls-1" points="26.06 5.69 25.51 9.72 25.01 13.75 24.53 17.77 24.07 21.8 23.62 25.83 23.2 29.87 22.81 33.9 22.46 37.94 23 33.92 23.51 29.9 23.99 25.86 24.45 21.84 24.89 17.8 25.31 13.77 25.71 9.73 26.06 5.69"/><polygon class="cls-1" points="20.53 6.15 20.62 10.14 20.76 14.13 20.91 18.13 21.08 22.12 21.28 26.11 21.5 30.1 21.73 34.1 22.01 38.1 21.92 34.1 21.8 30.11 21.63 26.12 21.47 22.13 21.27 18.13 21.06 14.14 20.81 10.14 20.53 6.15"/><polygon class="cls-1" points="15.01 6.59 15.73 10.56 16.5 14.52 17.29 18.48 18.1 22.43 18.93 26.39 19.77 30.34 20.66 34.3 21.56 38.25 20.84 34.3 20.08 30.33 19.29 26.38 18.48 22.43 17.65 18.46 16.8 14.52 15.92 10.56 15.01 6.59"/></g><polygon class="cls-1" points="32.46 1.16 32.16 5.75 31.89 10.34 31.44 19.53 31.09 28.7 30.95 33.29 30.87 37.89 31.18 33.29 31.44 28.71 31.89 19.53 32.23 10.34 32.37 5.75 32.46 1.16"/><polygon class="cls-1" points="20.45 2.28 21.14 6.8 21.89 11.32 23.45 20.34 25.12 29.37 25.98 33.89 26.89 38.4 26.2 33.88 25.46 29.37 23.9 20.34 22.23 11.3 21.36 6.79 20.45 2.28"/></g></g></svg>