<?xml version="1.0" encoding="UTF-8"?><svg id="Isolation_Mode" xmlns="http://www.w3.org/2000/svg" viewBox="0 0 44.5 63.14"><defs><style>.cls-1{fill:#fff;}</style></defs><path class="cls-1" d="M25.5,2.75C25.5-9.54,0,22.29,0,40.89c0,12.29,9.96,22.25,22.25,22.25s22.25-9.96,22.25-22.25S25.5,16.53,25.5,2.75Zm9.46,49.34c-.34,.33-.77,.5-1.21,.5s-.88-.17-1.22-.51c-.67-.67-.66-1.76,0-2.43,1.02-1.02,2.75-3.73,2.75-7.45s-2.84-7.41-2.87-7.45c-.61-.73-.51-1.81,.23-2.42,.73-.61,1.81-.51,2.42,.23,.15,.18,3.66,4.47,3.66,9.64,0,5.85-3.14,9.26-3.77,9.89Z"/></svg>