<?xml version="1.0" encoding="UTF-8"?><svg id="Layer_1" xmlns="http://www.w3.org/2000/svg" viewBox="0 0 472.12 137.04"><defs><style>.cls-1{fill:#fff;}</style></defs><path class="cls-1" d="M173.08,57.67c13.66-14.44,11.86-22.14,1.57-20.02-7.96,1.64-11.1,3.41-19.44,9.56-7.8,5.75-20.81,17.25-32.31,27.84-6.52,6-6.59,2.77-3.88-2.56,10.28-20.18,24.52-46.09,33.88-56.33,6.38-6.99,6.24-11.91,3.28-14.74-2.45-2.34-5.44-1.31-10.3-.2-5.7,1.29-11.66,2.07-15.83,7.49-6.74,8.77-42.76,57.69-71.73,87.54-21.05,21.68-31.41,27.42-36.21,28.1-5.04,.72-7.87-1.97-6.3-7.38,1.33-4.57,4.75-6.38,7.09-7.3,7.66-3.01,10.09-4.4,12.87-6.91,11.26-10.16,11.94-17.81,1.38-14.95-9.03,2.44-14.43,6.5-21.73,13.1-4.54,4.1-7.36,7.56-10.76,12.56-7.75,11.43-5.37,19.37,3.47,22.52,11.72,4.18,28.94-5.77,49.33-24.99,13.99-13.19,37.44-41.44,52.92-60.53,3.29-4.05,4.67-2.37,2.38,1.95-10.4,19.69-25.99,48.68-31.66,57.26-8.7,13.16-11.54,20.15-7.72,21.48s9.52-3.27,15.88-10c19.7-20.83,37.69-37.55,50.58-48.17,1.94-1.6,3.55-1.54,1.43,1.63-8.71,13.03-18.3,31.04-21.71,42.04-1.62,5.21-.98,9.42,1.19,12,3.72,4.42,19.08,3.79,33.5-12.08,4.28-4.71,7.49-9.26,7.91-10.56,.8-2.48-1.12-2.76-2.9-.98-10.42,10.38-18.7,14.69-20.51,13.17-2.79-2.34,13.16-32.35,26.61-51.06,3.14-4.36,7-8.73,7.72-9.48Z"/><g><g><path class="cls-1" d="M239.63,76.22h-6.3l-2.19-22.29-.42-5.95-1.49,5.93-7.46,22.31h-3.57l-7.77-22.26-1.71-6.16-.4,6.12-1.96,22.3h-6.11l3.66-36.16h8.17l6.62,20.39,1.27,5.19,1.19-5.14,6.35-20.44h7.8l4.32,36.16Z"/><path class="cls-1" d="M266.8,76.25h-2.52c-1.06,0-1.7-.11-2.08-.37-.59-.38-.93-1.01-1-1.89-1.69,.94-3.57,1.61-5.6,2.02-.82,.16-1.85,.24-3.07,.24s-2.48-.3-3.58-.88c-1.11-.59-1.99-1.45-2.61-2.53-.98-1.73-1.45-4.49-1.45-8.43v-15.91h6.19v15.89c0,3.65,.54,5.1,.99,5.67,.3,.37,.69,.61,1.18,.72,1.14,.26,2.51,.25,3.56,.02,.54-.12,1.08-.27,1.59-.44,.88-.31,1.62-.64,2.22-.98v-20.87h6.19v27.76Z"/><path class="cls-1" d="M296.56,76.22h-6.19v-16.91c0-2.1-.31-3.55-.91-4.32-.61-.78-1.66-1.17-3.13-1.17-1.58,0-3.28,.5-5.04,1.5-.48,.27-.94,.58-1.37,.91v19.99h-6.19V37.09h6.19v11.29l-.16,2.57c1.6-.97,3.47-1.69,5.58-2.15,2.07-.42,4.45-.49,6.51,.28,1.08,.4,1.98,1.09,2.69,2.03,1.36,1.79,2.02,4.59,2.02,8.57v16.55Z"/><path class="cls-1" d="M309.8,76.22h-6.19V37.09h6.19v39.13Z"/><path class="cls-1" d="M279.92,125.37h-6.19v-39.13h6.19v39.13Z"/><path class="cls-1" d="M266.38,125.37h-6.19v-39.13h6.19v39.13Z"/><path class="cls-1" d="M366.11,76.22h-6.19v-16.91c0-2.17-.28-3.66-.82-4.44-.5-.73-1.46-1.1-2.86-1.1-1.63,0-3.37,.52-5.18,1.55-.48,.27-.94,.57-1.37,.91v19.99h-6.19v-27.74h5.63l.02,2.65c1.75-1.03,3.72-1.8,5.86-2.3,2.14-.47,4.57-.51,6.57,.18,1.05,.37,1.94,1,2.63,1.9,1.27,1.67,1.89,4.42,1.89,8.42v16.89Z"/><path class="cls-1" d="M382.56,76.25c-2.67,0-5.38-.45-8.05-1.34-.7-.23-1.18-.44-1.48-.65l-.24-.17V37.09h6.19v11.26l-.12,2.3c1.85-1.43,4.05-2.16,6.58-2.16,3.09,0,5.67,1.08,7.66,3.22,2.16,2.3,3.26,5.56,3.26,9.69,0,4.34-1.27,7.94-3.76,10.68-2.56,2.77-5.93,4.18-10.04,4.18Zm-3.58-5.5c.82,.43,2.22,.65,4.16,.65,2.03,0,3.63-.76,4.88-2.32,1.37-1.71,2.06-4.14,2.06-7.23,0-5.56-1.98-8.26-6.05-8.26-1.69,0-3.39,.67-5.06,1.99v15.16Z"/><path class="cls-1" d="M412.32,76.25c-3.87,0-6.91-1.26-9.04-3.74-2.09-2.43-3.15-5.85-3.15-10.18,0-4.01,1.04-7.3,3.1-9.77,2.25-2.7,5.39-4.07,9.32-4.07,2.82,0,5.16,.85,6.97,2.53,1.98,1.89,3.03,4.47,3.13,7.68,0,2.36-.09,3.9-.27,4.72l-.1,.44h-16.04c.32,3.95,1.82,6.26,4.57,7.05,1.81,.53,3.2,.43,4.37,.28,.61-.08,1.21-.17,1.81-.29,1.22-.26,2.47-.64,3.57-1.19l1.27,3.82-.3,.25c-1.37,1.12-3.55,1.87-6.68,2.29-.88,.12-1.73,.19-2.54,.19Zm-5.92-16.87h10.4c0-.14,0-.27,0-.41,0-3.94-1.48-5.77-4.66-5.77s-5.12,2.02-5.74,6.18Z"/><path class="cls-1" d="M327.68,76.25c-3.87,0-6.91-1.26-9.04-3.74-2.09-2.43-3.15-5.85-3.15-10.18,0-4.01,1.04-7.3,3.1-9.77,2.25-2.7,5.39-4.07,9.32-4.07,2.82,0,5.16,.85,6.97,2.53,1.98,1.89,3.03,4.47,3.13,7.68,0,2.36-.09,3.9-.27,4.72l-.1,.44h-16.04c.32,3.95,1.82,6.26,4.57,7.05,1.81,.53,3.2,.43,4.37,.28,.61-.08,1.21-.17,1.81-.29,1.22-.26,2.47-.64,3.57-1.19l1.27,3.82-.3,.25c-1.37,1.12-3.55,1.87-6.68,2.29-.88,.12-1.73,.19-2.54,.19Zm-5.92-16.87h10.4c0-.14,0-.27,0-.41,0-3.94-1.48-5.77-4.66-5.77s-5.12,2.02-5.74,6.18Z"/><path class="cls-1" d="M434.23,76.22h-6.19v-27.74h5.33l.25,2.53c1.07-.93,2.51-1.66,4.31-2.17,.78-.24,1.7-.36,2.73-.36h2.75v7.06c-1.18-1.08-2.67-1.5-4.01-1.5-1.99,0-3.68,.7-5.17,2.15v20.02Z"/><path class="cls-1" d="M457.7,87.9c-5.45,0-9.03-1.52-10.65-4.52-.56-1.03-.85-2.09-.85-3.15s.12-1.87,.38-2.49c.24-.59,.56-1.13,.94-1.62,.5-.63,1.13-1.19,1.89-1.69-1.04-.92-1.57-2.26-1.57-3.99,.03-1.01,.36-2.02,.95-3.02,.46-.76,1.07-1.46,1.82-2.09-1.13-.72-2.06-1.62-2.77-2.71-.87-1.33-1.31-2.85-1.31-4.53s.29-3.08,.85-4.26c.56-1.18,1.36-2.17,2.36-2.95,1.99-1.58,4.72-2.39,8.1-2.39,2.36,0,4.45,.5,6.23,1.48,1.42-.98,3.08-1.48,4.94-1.48h3.12v5.34h-4.44c.54,1.16,.81,2.42,.81,3.74,0,1.63-.29,3.06-.88,4.23-.58,1.17-1.39,2.17-2.4,2.97-2,1.58-4.64,2.38-7.85,2.38-.98,0-1.89-.09-2.71-.26-.71,.6-1.05,1.3-1.05,2.14,0,1.22,.26,1.5,.31,1.55,.43,.36,1.14,.54,2.12,.54h4.77c3.79,0,6.55,.82,8.22,2.43,1.34,1.28,2.01,3.08,2.01,5.35,0,2.72-1.35,4.96-4.01,6.67-2.46,1.55-5.59,2.34-9.3,2.34Zm-4.15-11.8c-.87,.81-1.3,1.8-1.3,3.04,0,2.13,.93,3.36,2.92,3.87,1.48,.4,3.78,.37,5.55,.06,.88-.16,1.67-.39,2.34-.7,1.35-.6,2-1.37,2-2.38,0-1.32-.34-2.22-1.04-2.76-.88-.67-2.52-1-4.89-1h-2.35c-1.46,0-2.52-.04-3.23-.13Zm4.15-23.05c-2.39,0-3.89,.75-4.6,2.31-.27,.61-.41,1.34-.41,2.16s.09,1.57,.27,2.17c.18,.58,.46,1.09,.83,1.52,.83,.98,2.04,1.45,3.67,1.45,2.46,0,3.94-.78,4.51-2.4,.22-.61,.34-1.41,.34-2.36,0-3.31-1.47-4.85-4.62-4.85Z"/></g><g><path class="cls-1" d="M297.8,125.4c-3.87,0-6.91-1.26-9.04-3.74-2.09-2.43-3.15-5.85-3.15-10.18,0-4.01,1.04-7.3,3.1-9.77,2.25-2.7,5.39-4.07,9.32-4.07,2.82,0,5.16,.85,6.97,2.53,1.98,1.89,3.03,4.47,3.13,7.68,0,2.36-.09,3.9-.27,4.72l-.1,.44h-16.04c.32,3.95,1.82,6.26,4.57,7.05,1.81,.53,3.2,.43,4.37,.28,.61-.08,1.21-.17,1.81-.29,1.22-.26,2.47-.64,3.57-1.19l1.27,3.82-.3,.25c-1.37,1.12-3.55,1.87-6.68,2.29-.88,.12-1.73,.19-2.54,.19Zm-5.92-16.87h10.4c0-.14,0-.27,0-.41,0-3.94-1.48-5.77-4.66-5.77s-5.12,2.02-5.74,6.18Z"/><path class="cls-1" d="M351.91,125.4c-3.87,0-6.91-1.26-9.04-3.74-2.09-2.43-3.15-5.85-3.15-10.18,0-4.01,1.04-7.3,3.1-9.77,2.25-2.7,5.39-4.07,9.32-4.07,2.82,0,5.16,.85,6.97,2.53,1.98,1.89,3.03,4.47,3.13,7.68,0,2.36-.09,3.9-.27,4.72l-.1,.44h-16.04c.32,3.95,1.82,6.26,4.57,7.05,1.81,.53,3.2,.43,4.37,.28,.61-.08,1.21-.17,1.81-.29,1.22-.26,2.47-.64,3.57-1.19l1.27,3.82-.3,.25c-1.37,1.12-3.55,1.87-6.68,2.29-.88,.12-1.73,.19-2.54,.19Zm-5.92-16.87h10.4c0-.14,0-.27,0-.41,0-3.94-1.48-5.77-4.66-5.77s-5.12,2.02-5.74,6.18Z"/><path class="cls-1" d="M323.41,137.04c-5.45,0-9.03-1.52-10.65-4.52-.56-1.03-.85-2.09-.85-3.15s.12-1.87,.38-2.49c.24-.59,.56-1.13,.94-1.62,.5-.63,1.13-1.19,1.89-1.69-1.04-.92-1.57-2.26-1.57-3.99,.03-1.01,.36-2.02,.95-3.02,.46-.76,1.07-1.46,1.82-2.09-1.13-.72-2.06-1.62-2.77-2.71-.87-1.33-1.31-2.85-1.31-4.53s.29-3.08,.85-4.26c.56-1.18,1.36-2.17,2.36-2.95,1.99-1.58,4.72-2.39,8.1-2.39,2.36,0,4.45,.5,6.23,1.48,1.42-.98,3.08-1.48,4.94-1.48h3.12v5.34h-4.44c.54,1.16,.81,2.42,.81,3.74,0,1.63-.29,3.06-.88,4.23-.58,1.17-1.39,2.17-2.4,2.97-2,1.58-4.64,2.38-7.85,2.38-.98,0-1.89-.09-2.71-.26-.71,.6-1.05,1.3-1.05,2.14,0,1.22,.26,1.5,.31,1.55,.43,.36,1.14,.54,2.12,.54h4.77c3.79,0,6.55,.82,8.22,2.43,1.34,1.28,2.01,3.08,2.01,5.35,0,2.72-1.35,4.96-4.01,6.67-2.46,1.55-5.59,2.34-9.3,2.34Zm-4.15-11.8c-.87,.81-1.3,1.8-1.3,3.04,0,2.13,.93,3.36,2.92,3.87,1.48,.4,3.78,.37,5.55,.06,.88-.16,1.67-.39,2.34-.7,1.35-.6,2-1.37,2-2.38,0-1.32-.34-2.22-1.04-2.76-.88-.67-2.52-1-4.89-1h-2.35c-1.46,0-2.52-.04-3.23-.13Zm4.15-23.05c-2.39,0-3.89,.75-4.6,2.31-.27,.61-.41,1.34-.41,2.16s.09,1.57,.27,2.17c.18,.58,.46,1.09,.83,1.52,.83,.98,2.04,1.45,3.67,1.45,2.46,0,3.94-.78,4.51-2.4,.22-.61,.34-1.41,.34-2.36,0-3.31-1.47-4.85-4.62-4.85Z"/><path class="cls-1" d="M217.05,125.4c-5.07,0-9.2-1.67-12.29-4.96-3.05-3.27-4.6-7.63-4.6-12.96,0-5.61,1.7-10.15,5.04-13.51,1.53-1.55,3.34-2.75,5.36-3.56,2.01-.81,4.44-1.21,6.25-1.21,3.58,0,6.71,.41,9.94,1.45l-.94,5.99-.71-.41c-1.99-1.16-4.62-1.74-7.82-1.74-3.39,0-5.99,1.1-7.96,3.37-1.96,2.26-2.95,5.39-2.95,9.28s.98,7.09,2.91,9.48c1.99,2.43,4.6,3.61,7.97,3.61,2.63,0,5-.42,7.04-1.25,.53-.22,1.42-.84,2.12-1.49l.03,5.89-.36,.14c-2.32,.92-4.1,1.45-5.43,1.62-1.29,.17-2.51,.26-3.62,.26Z"/><path class="cls-1" d="M241.7,125.4c-1.97,0-3.74-.4-5.28-1.2-4.29-2.18-6.47-6.5-6.47-12.84,0-4.39,1.23-7.85,3.66-10.28,2.28-2.28,5.26-3.44,8.87-3.44,4.13,0,7.3,1.48,9.41,4.39,1.78,2.47,2.69,5.77,2.69,9.83s-1.24,7.64-3.69,10.1c-2.25,2.28-5.34,3.44-9.19,3.44Zm.48-23c-1.94,0-3.38,.7-4.4,2.14-1.05,1.48-1.58,3.67-1.58,6.51s.54,5.17,1.61,7.01c1.02,1.77,2.47,2.63,4.44,2.63s3.45-.72,4.48-2.19c1.06-1.52,1.59-3.76,1.59-6.66,0-4.36-1.12-7.29-3.33-8.71-.76-.48-1.71-.73-2.8-.73Z"/></g></g></svg>