<?xml version="1.0" encoding="UTF-8"?><svg id="Layer_1" xmlns="http://www.w3.org/2000/svg" viewBox="0 0 572.76 445.87"><defs><style>.cls-1{fill:#fff;}.cls-2{stroke-width:.46px;}.cls-2,.cls-3{fill:none;stroke:#fff;stroke-linecap:round;stroke-miterlimit:10;}.cls-3{stroke-width:.66px;}</style></defs><path class="cls-1" d="m448.53,424.05c0,7.96-2.95,12.35-8.13,12.35-4.57,0-7.67-4.28-7.74-12.02,0-7.85,3.38-12.17,8.13-12.17s7.74,4.39,7.74,11.84Zm-12.71.36c0,6.08,1.87,9.54,4.75,9.54,3.24,0,4.79-3.78,4.79-9.75s-1.48-9.54-4.75-9.54c-2.77,0-4.79,3.38-4.79,9.75Z"/><path class="cls-1" d="m466.96,411.02c-2.63,3.53-4.54,8.21-4.54,14.72s1.98,11.01,4.54,14.61h-2.48c-2.27-2.99-4.72-7.59-4.72-14.61.04-7.09,2.45-11.7,4.72-14.72h2.48Z"/><path class="cls-1" d="m488.45,434.92c-1.4.5-4.18,1.33-7.45,1.33-3.67,0-6.7-.94-9.07-3.2-2.09-2.02-3.38-5.26-3.38-9.04.04-7.24,5-12.53,13.14-12.53,2.81,0,5,.61,6.05,1.12l-.76,2.56c-1.3-.58-2.92-1.04-5.36-1.04-5.9,0-9.76,3.67-9.76,9.75s3.71,9.79,9.36,9.79c2.05,0,3.46-.29,4.18-.65v-7.24h-4.93v-2.52h7.99v11.66Z"/><path class="cls-1" d="m503.07,436l-.25-2.2h-.11c-.97,1.37-2.84,2.59-5.33,2.59-3.53,0-5.33-2.48-5.33-5,0-4.21,3.74-6.52,10.47-6.48v-.36c0-1.44-.4-4.03-3.96-4.03-1.62,0-3.31.5-4.54,1.3l-.72-2.09c1.44-.94,3.53-1.55,5.72-1.55,5.33,0,6.62,3.63,6.62,7.13v6.51c0,1.51.07,2.99.29,4.18h-2.88Zm-.47-8.89c-3.46-.07-7.38.54-7.38,3.92,0,2.05,1.37,3.02,2.99,3.02,2.27,0,3.71-1.44,4.21-2.92.11-.32.18-.68.18-1.01v-3.02Z"/><path class="cls-1" d="m510.77,410.45h3.17v25.56h-3.17v-25.56Z"/><path class="cls-1" d="m519.27,410.45h3.17v25.56h-3.17v-25.56Z"/><path class="cls-1" d="m543.53,427.15c0,6.44-4.46,9.25-8.67,9.25-4.72,0-8.35-3.46-8.35-8.96,0-5.83,3.82-9.25,8.64-9.25s8.39,3.63,8.39,8.96Zm-13.82.18c0,3.82,2.2,6.7,5.29,6.7s5.29-2.84,5.29-6.77c0-2.95-1.48-6.7-5.22-6.7s-5.36,3.46-5.36,6.77Z"/><path class="cls-1" d="m547.53,423.3c0-1.8-.04-3.28-.14-4.72h2.81l.18,2.88h.07c.86-1.66,2.88-3.28,5.76-3.28,2.41,0,6.16,1.44,6.16,7.42v10.4h-3.17v-10.04c0-2.81-1.04-5.15-4.03-5.15-2.09,0-3.71,1.48-4.25,3.24-.14.4-.22.94-.22,1.48v10.47h-3.17v-12.71Z"/><path class="cls-1" d="m565.6,440.36c2.55-3.56,4.54-8.24,4.54-14.72s-1.94-11.05-4.54-14.61h2.45c2.3,2.95,4.71,7.56,4.71,14.65s-2.41,11.63-4.71,14.69h-2.45Z"/><path class="cls-1" d="m432.98,355.6v-1.94l2.48-2.41c5.97-5.69,8.67-8.71,8.71-12.24,0-2.38-1.15-4.57-4.64-4.57-2.12,0-3.89,1.08-4.97,1.98l-1.01-2.23c1.62-1.37,3.92-2.38,6.62-2.38,5.04,0,7.16,3.46,7.16,6.8,0,4.32-3.13,7.81-8.06,12.56l-1.87,1.73v.07h10.51v2.63h-14.94Z"/><path class="cls-1" d="m455.59,346.17h.07c.43-.61,1.04-1.37,1.55-1.98l5.11-6.01h3.82l-6.73,7.16,7.67,10.26h-3.85l-6.01-8.35-1.62,1.8v6.55h-3.13v-25.56h3.13v16.13Z"/><path class="cls-1" d="m442.77,274.19v-6.37h-10.87v-2.09l10.44-14.94h3.42v14.54h3.28v2.48h-3.28v6.37h-2.99Zm0-8.85v-7.81c0-1.22.04-2.45.11-3.67h-.11c-.72,1.37-1.29,2.38-1.94,3.46l-5.72,7.96v.07h7.67Z"/><path class="cls-1" d="m455.59,264.76h.07c.43-.61,1.04-1.37,1.55-1.98l5.11-6.01h3.82l-6.73,7.16,7.67,10.26h-3.85l-6.01-8.35-1.62,1.8v6.55h-3.13v-25.56h3.13v16.13Z"/><path class="cls-1" d="m446.33,171.62c-.65-.04-1.48,0-2.38.14-4.97.83-7.59,4.46-8.14,8.32h.11c1.12-1.48,3.06-2.7,5.65-2.7,4.14,0,7.05,2.99,7.05,7.56,0,4.28-2.92,8.24-7.77,8.24s-8.28-3.89-8.28-9.97c0-4.61,1.66-8.24,3.96-10.55,1.94-1.91,4.54-3.1,7.49-3.46.94-.14,1.73-.18,2.3-.18v2.59Zm-.9,13.5c0-3.35-1.91-5.36-4.82-5.36-1.91,0-3.67,1.19-4.54,2.88-.21.36-.36.83-.36,1.4.07,3.85,1.84,6.7,5.15,6.7,2.74,0,4.57-2.27,4.57-5.62Z"/><path class="cls-1" d="m455.59,183.36h.07c.43-.61,1.04-1.37,1.55-1.98l5.11-6.01h3.82l-6.73,7.16,7.67,10.26h-3.85l-6.01-8.35-1.62,1.8v6.55h-3.13v-25.56h3.13v16.13Z"/><path class="cls-1" d="m432.69,106.45c0-2.95,1.76-5.04,4.64-6.26l-.04-.11c-2.59-1.22-3.71-3.24-3.71-5.25,0-3.71,3.13-6.23,7.24-6.23,4.54,0,6.8,2.84,6.8,5.76,0,1.98-.97,4.1-3.85,5.47v.11c2.92,1.15,4.72,3.2,4.72,6.05,0,4.07-3.49,6.8-7.96,6.8-4.9,0-7.85-2.92-7.85-6.33Zm12.6-.14c0-2.84-1.98-4.21-5.15-5.11-2.74.79-4.21,2.59-4.21,4.82-.11,2.38,1.69,4.46,4.68,4.46s4.68-1.76,4.68-4.17Zm-8.71-11.7c0,2.34,1.76,3.6,4.46,4.32,2.02-.68,3.56-2.12,3.56-4.25,0-1.87-1.12-3.82-3.96-3.82-2.63,0-4.07,1.73-4.07,3.74Z"/><path class="cls-1" d="m455.59,102.95h.07c.43-.61,1.04-1.37,1.55-1.98l5.11-6.01h3.82l-6.73,7.16,7.67,10.26h-3.85l-6.01-8.35-1.62,1.8v6.55h-3.13v-25.56h3.13v16.13Z"/><path class="cls-1" d="m439.86,9.6h-.07l-4.07,2.2-.61-2.41,5.11-2.74h2.7v23.4h-3.06V9.6Z"/><path class="cls-1" d="m467,18.09c0,7.96-2.95,12.35-8.14,12.35-4.57,0-7.67-4.28-7.74-12.02,0-7.85,3.38-12.17,8.13-12.17s7.74,4.39,7.74,11.84h0Zm-12.71.36c0,6.08,1.87,9.54,4.75,9.54,3.24,0,4.79-3.78,4.79-9.75s-1.48-9.54-4.75-9.54c-2.77,0-4.79,3.38-4.79,9.75Z"/><path class="cls-1" d="m474.05,20.61h.07c.43-.61,1.04-1.37,1.55-1.98l5.11-6.01h3.82l-6.73,7.16,7.67,10.26h-3.85l-6.01-8.35-1.62,1.8v6.55h-3.13V4.49h3.13v16.13Z"/><line class="cls-3" x1="370.8" y1="424.7" x2="405.8" y2="424.7"/><line class="cls-2" x1="370.8" y1="59.31" x2="388.3" y2="59.31"/><line class="cls-3" x1="370.8" y1="99.91" x2="405.8" y2="99.91"/><line class="cls-3" x1="370.8" y1="18.71" x2="405.8" y2="18.71"/><line class="cls-2" x1="370.8" y1="140.51" x2="388.3" y2="140.51"/><line class="cls-3" x1="370.8" y1="181.11" x2="405.8" y2="181.11"/><line class="cls-2" x1="370.8" y1="221.71" x2="388.3" y2="221.71"/><line class="cls-3" x1="370.8" y1="262.31" x2="405.8" y2="262.31"/><line class="cls-2" x1="370.8" y1="302.91" x2="388.3" y2="302.91"/><line class="cls-3" x1="370.8" y1="343.51" x2="405.8" y2="343.51"/><line class="cls-2" x1="370.8" y1="384.11" x2="388.3" y2="384.11"/><path class="cls-1" d="m250.49,46.72h0V0H95.19v46.72C75.15,56.75,0,110.57,0,116.53v317.44c0,6.58,7.83,11.9,14.41,11.9h321.41c6.57,0,9.86-5.33,9.86-11.9V116.53c0-5.96-75.15-59.78-95.19-69.82Zm70.14,364.54c0,8.05-6.53,14.58-14.58,14.58H39.71c-8.1,0-14.66-6.56-14.66-14.66V130.81c0-2.87,1.38-5.57,3.71-7.26l86.05-62.07-.48-42.52,117.83-.24-.24,42.77,85.18,62.2c2.22,1.6,3.54,4.18,3.54,6.92v280.66Z"/></svg>