<?xml version="1.0" encoding="UTF-8"?><svg id="Layer_1" xmlns="http://www.w3.org/2000/svg" viewBox="0 0 314.97 23.24"><defs><style>.cls-1{fill:#0c80c0;}</style></defs><path class="cls-1" d="m314.97,23.24v-10.88c-5.34-1.68-12.22-5.5-17.29-10.8-6.93,7.25-14.92,11.78-25.74,11.78s-20.55-4.54-27.48-11.78c-6.93,7.25-16.66,11.78-27.48,11.78s-20.56-4.54-27.49-11.78c-6.93,7.25-16.68,11.78-27.49,11.78-11.57,0-21.93-5.18-28.91-13.33-6.99,8.15-17.37,13.33-28.93,13.33s-20.97-4.7-27.92-12.17c-6.95,7.47-17,12.17-28.01,12.17S27,8.63,20.06,1.16C14.94,6.66,5.34,10.63,0,12.36v10.88"/></svg>