<?xml version="1.0" encoding="UTF-8"?>
<svg id="Layer_1" data-name="Layer 1" xmlns="http://www.w3.org/2000/svg" width="2.25615in" height="2.48391in" viewBox="0 0 162.44287 178.84143">
  <defs>
    <style>
      .cls-1 {
        fill: #69bc6f;
      }
    </style>
  </defs>
  <path class="cls-1" d="M162.44287,75.79871c0-17.22559-11.72021-31.70898-27.61914-35.92456C131.25879,17.27942,111.70215,0,88.10547,0c-14.90918,0-28.19873,6.90417-36.86914,17.68225-.44385-.02405-.89014-.03809-1.33984-.03809-12.9668,0-23.56934,10.09961-24.38379,22.86084C10.69678,45.39587,0,59.34387,0,75.79871c0,20.52759,16.64062,37.16858,37.16846,37.16858,1.18652,0,2.35791-.06165,3.51611-.17029h1.91797l29.80078,29.80066v36.24377h21.15479v-42.94568l23.09863-23.09875h5.10156c1.15771,.10864,2.32959,.17029,3.51611,.17029s2.35791-.06165,3.51611-.17029h.00244v-.00024c18.87646-1.77332,33.6499-17.65771,33.6499-36.99805ZM48.77734,112.797h23.62598v23.62585l-23.62598-23.62585Zm44.78076,16.92395v-16.92395h16.92383l-16.92383,16.92395Z"/>
</svg>