<?xml version="1.0" encoding="UTF-8"?>
<svg id="Layer_1" data-name="Layer 1" xmlns="http://www.w3.org/2000/svg" width="2.33268in" height="2.12562in" viewBox="0 0 167.95286 153.04492">
  <defs>
    <style>
      .cls-1 {
        fill: #fff;
      }
    </style>
  </defs>
  <path class="cls-1" d="M87.95273,133.88043v6.69307h2.1827v-30.47242c-.26625-.01804-.54147-.05298-.81671-.05299-11.27015-.00046-22.54028,.0025-33.81043,.00446-5.93626,.00103-11.87252,.00103-17.80877,.00141-1.44331,.0001-1.45264,.00313-1.92487-1.3786-4.34057-12.70038-8.67369-25.40331-13.01685-38.10281-4.5119-13.19287-9.03594-26.38159-13.54816-39.57435C6.17646,22.12984,3.16051,13.25555,.11419,4.39171c-.20011-.58227-.17335-.92071,.37449-1.28405C1.8867,2.18043,3.22569,1.16416,4.6244,.23805c.29771-.19712,.76965-.28045,1.12607-.21729,5.92599,1.05008,11.84477,2.14072,17.76837,3.20441,7.57508,1.36025,15.15453,2.69616,22.72934,4.05788,8.26012,1.48492,16.51572,2.99504,24.77584,4.47995,7.82803,1.40724,15.66039,2.79034,23.48899,4.19442,10.51092,1.88516,21.01993,3.78091,31.53008,5.67039,1.48111,.26628,2.97089,.49076,4.44103,.80713,.35664,.07675,.81066,.37033,.95122,.68444,4.30113,9.61204,8.57122,19.23796,12.84084,28.86409,5.98327,13.48974,11.96149,26.98173,17.94359,40.472,1.81833,4.10049,3.62527,8.2062,5.47842,12.29093,.36494,.80435,.38565,1.41967-.25651,2.09036-.51609,.53903-.98775,1.15624-1.33332,1.81522-.6449,1.22983-1.64819,1.42579-2.92127,1.42147-10.98033-.03727-21.96081-.01857-32.94125-.02591-6.31541-.00421-12.6308-.0321-18.94621-.03677-3.24312-.00241-6.48628,.02201-9.72941,.03721-.19884,.00093-.39756,.02732-.69214,.04888v23.7234c1.06169,.05414,2.14563,.12058,3.23052,.16296,7.6481,.29873,15.26012,.94518,22.77327,2.46826,2.86605,.58102,5.7117,1.26866,8.35154,2.59063,.48911,.24493,.95949,.53879,1.40478,.85722,.8573,.61304,1.31982,1.41789,1.21336,2.52441-.06352,.66032-.05888,1.33545-.00355,1.99713,.10195,1.21922-.47277,2.03149-1.43621,2.66656-1.96429,1.29477-4.17519,1.9795-6.41746,2.55783-6.04848,1.56002-12.22951,2.26701-18.43833,2.76647-8.12229,.65345-16.25993,.77422-24.39794,.48554-8.94536-.3173-17.86194-.98228-26.60455-3.07524-2.53538-.60696-5.04615-1.31454-7.24362-2.8102-.92816-.63172-1.45177-1.45351-1.34158-2.63104,.05643-.60312,.06458-1.22192-.00142-1.8231-.15498-1.4115,.50446-2.43171,1.68449-2.95423,2.07958-.9208,4.18569-1.86519,6.37526-2.43875,7.25639-1.90085,14.69913-2.56843,22.16354-3.00859,1.87383-.11047,3.75005-.18054,5.76255-.27569Zm76.03613-29.08788c-.18633-.44712-.31996-.78657-.46776-1.11972-2.60458-5.87071-5.21255-11.7399-7.81639-17.61093-4.98367-11.23698-9.9665-22.47433-14.94712-33.71266-3.88023-8.7554-7.75072-17.51512-11.65835-26.25826-.13924-.31153-.60246-.60857-.9584-.6738-8.11075-1.48651-16.2269-2.94361-24.34348-4.39819-10.47643-1.87748-20.95503-3.74282-31.43099-5.62289-10.56317-1.89571-21.12414-3.80365-31.68628-5.70511-9.851-1.77343-19.70207-3.54645-29.55361-5.31688-1.53046-.27504-3.06359-.53529-4.70241-.82102,.12116,.39264,.19663,.66279,.28747,.92767,1.02193,2.97937,2.04572,5.9581,3.06996,8.93667,3.93053,11.43032,7.85937,22.86123,11.79277,34.29056,3.51925,10.22595,7.04427,20.44991,10.5656,30.67513,2.97598,8.64166,5.94654,17.28521,8.94616,25.91866,.07866,.22641,.46494,.49082,.70961,.49267,3.03962,.02301,6.0796-.00841,9.11948-.00874,21.8971-.00239,43.7942-.00164,65.6913-.00022,15.49725,.00101,30.99448,.00463,46.49173,.00707,.25256,.00004,.5051,0,.89069,0Z"/>
  <g>
    <g>
      <polygon class="cls-1" points="21.64875 26.61912 26.39371 30.09486 43.12522 32.15191 43.22723 32.04635 26.49404 29.98616 21.74909 26.50917 21.64875 26.61912 21.64875 26.61912"/>
      <polygon class="cls-1" points="17.06935 12.89742 21.64875 26.61912 21.74909 26.50917 17.16717 12.78622 17.06935 12.89742 17.06935 12.89742"/>
      <path class="cls-1" d="M19.79843,10.54292l-2.72908,2.3545c.92665-.83402,1.87353-1.65976,2.82691-2.46529l-.09783,.11079h0Z"/>
      <polygon class="cls-1" points="40.86687 16.41538 36.38697 13.06652 19.79843 10.54292 19.89626 10.43213 36.48563 12.95908 40.96637 16.30898 40.86687 16.41538 40.86687 16.41538"/>
      <path class="cls-1" d="M43.12522,32.15191c.85681-.86068,1.71221-1.72291,2.56604-2.58652-.85671,.86079-1.71209,1.72301-2.56604,2.58652h0Z"/>
      <polygon class="cls-1" points="45.59009 29.67032 40.86687 16.41538 40.96637 16.30898 45.69126 29.56539 45.59009 29.67032 45.59009 29.67032"/>
      <polygon class="cls-1" points="45.69126 29.56539 40.96637 16.30898 36.48563 12.95908 19.89626 10.43213 17.16717 12.78622 21.74909 26.50917 26.49404 29.98616 43.22723 32.04635 45.69126 29.56539 45.69126 29.56539"/>
      <polygon class="cls-1" points="40.86687 16.41538 45.59009 29.67032 43.12522 32.15191 26.39371 30.09486 21.64875 26.61912 17.06935 12.89742 19.79843 10.54292 36.38697 13.06652 40.86687 16.41538 40.86687 16.41538"/>
    </g>
    <g>
      <polygon class="cls-1" points="47.97469 29.97487 52.45126 33.29885 67.85585 35.19224 67.95786 35.09148 52.55326 33.19538 48.07586 29.87015 47.97469 29.97487 47.97469 29.97487"/>
      <polygon class="cls-1" points="43.23726 16.76613 47.97469 29.97487 48.07586 29.87015 43.33676 16.66015 43.23726 16.76613 43.23726 16.76613"/>
      <path class="cls-1" d="M45.63942,14.47412l-2.40216,2.292c.82812-.80435,1.6627-1.6042,2.50166-2.39756l-.0995,.10556h0Z"/>
      <polygon class="cls-1" points="65.17527 20.00879 60.93616 16.80062 45.63942 14.47412 45.73892 14.36856 61.03566 16.69819 65.2756 19.9072 65.17527 20.00879 65.17527 20.00879"/>
      <path class="cls-1" d="M67.85585,35.19224c.74886-.84154,1.50525-1.67856,2.26671-2.50835-.74921,.84129-1.50551,1.67823-2.26671,2.50835h0Z"/>
      <polygon class="cls-1" points="70.02056 32.78401 65.17527 20.00879 65.2756 19.9072 70.12256 32.68389 70.02056 32.78401 70.02056 32.78401"/>
      <polygon class="cls-1" points="70.12256 32.68389 65.2756 19.9072 61.03566 16.69819 45.73892 14.36856 43.33676 16.66015 48.07586 29.87015 52.55326 33.19538 67.95786 35.09148 70.12256 32.68389 70.12256 32.68389"/>
      <polygon class="cls-1" points="65.17527 20.00879 70.02056 32.78401 67.85585 35.19224 52.45126 33.29885 47.97469 29.97487 43.23726 16.76613 45.63942 14.47412 60.93616 16.80062 65.17527 20.00879 65.17527 20.00879"/>
    </g>
    <g>
      <polygon class="cls-1" points="72.21954 33.06474 76.4553 36.2495 90.68432 37.99866 90.78716 37.90251 76.55815 36.15042 72.32155 32.96482 72.21954 33.06474 72.21954 33.06474"/>
      <polygon class="cls-1" points="67.36422 20.33279 72.21954 33.06474 72.32155 32.96482 67.46455 20.23183 67.36422 20.33279 67.36422 20.33279"/>
      <path class="cls-1" d="M69.48126,18.10119l-2.11705,2.23159c.75683-.75999,1.49568-1.53744,2.21654-2.33234l-.0995,.10075h0Z"/>
      <polygon class="cls-1" points="87.65257 23.33193 83.63001 20.25357 69.48126 18.10119 69.58076 18.00044 83.73035 20.15574 87.7529 23.23495 87.65257 23.33193 87.65257 23.33193"/>
      <path class="cls-1" d="M90.68432,37.99866c.56351-.90955,1.23212-1.72086,2.00584-2.43393-.56432,.90868-1.23294,1.72-2.00584,2.43393h0Z"/>
      <polygon class="cls-1" points="92.58732 35.66067 87.65257 23.33193 87.7529 23.23495 92.69016 35.56473 92.58732 35.66067 92.58732 35.66067"/>
      <polygon class="cls-1" points="92.69016 35.56473 87.7529 23.23495 83.73035 20.15574 69.58076 18.00044 67.46455 20.23183 72.32155 32.96482 76.55815 36.15042 90.78716 37.90251 92.69016 35.56473 92.69016 35.56473"/>
      <polygon class="cls-1" points="87.65257 23.33193 92.58732 35.66067 90.68432 37.99866 76.4553 36.2495 72.21954 33.06474 67.36422 20.33279 69.48126 18.10119 83.63001 20.25357 87.65257 23.33193 87.65257 23.33193"/>
    </g>
    <g>
      <polygon class="cls-1" points="44.98558 96.53951 49.98472 100.03928 67.17442 100.269 67.28813 100.1716 50.09843 99.93895 45.09762 96.43813 44.98558 96.53951 44.98558 96.53951"/>
      <polygon class="cls-1" points="39.75568 80.87028 44.98558 96.53951 45.09762 96.43813 39.86521 80.7666 39.75568 80.87028 39.75568 80.87028"/>
      <path class="cls-1" d="M42.45967,77.72962l-2.704,3.14066c.94759-1.07009,1.88764-2.15394,2.81353-3.24392l-.10953,.10326h0Z"/>
      <polygon class="cls-1" points="64.21791 81.94532 59.51309 78.56908 42.45967 77.72962 42.56921 77.62636 59.62262 78.46875 64.32912 81.84603 64.21791 81.94532 64.21791 81.94532"/>
      <path class="cls-1" d="M67.17442,100.269c.81242-1.13456,1.66296-2.26766,2.5234-3.36139-.81175,1.13477-1.66265,2.26836-2.5234,3.36139h0Z"/>
      <polygon class="cls-1" points="69.58494 97.00502 64.21791 81.94532 64.32912 81.84603 69.69782 96.90761 69.58494 97.00502 69.58494 97.00502"/>
      <polygon class="cls-1" points="69.69782 96.90761 64.32912 81.84603 59.62262 78.46875 42.56921 77.62636 39.86521 80.7666 45.09762 96.43813 50.09843 99.93895 67.28813 100.1716 69.69782 96.90761 69.69782 96.90761"/>
      <polygon class="cls-1" points="64.21791 81.94532 69.58494 97.00502 67.17442 100.269 49.98472 100.03928 44.98558 96.53951 39.75568 80.87028 42.45967 77.72962 59.51309 78.56908 64.21791 81.94532 64.21791 81.94532"/>
    </g>
    <g>
      <polygon class="cls-1" points="72.02723 97.05184 76.72871 100.39735 92.46776 100.607 92.5823 100.51378 76.84326 100.3014 72.14095 96.95485 72.02723 97.05184 72.02723 97.05184"/>
      <polygon class="cls-1" points="66.6485 82.05255 72.02723 97.05184 72.14095 96.95485 66.75887 81.95368 66.6485 82.05255 66.6485 82.05255"/>
      <path class="cls-1" d="M68.99882,79.03605l-2.35032,3.0165c.83612-1.01784,1.6626-2.0642,2.46069-3.11516l-.11037,.09866h0Z"/>
      <polygon class="cls-1" points="89.07981 83.03791 84.64088 79.80528 68.99882 79.03605 69.10919 78.93739 84.75124 79.70955 89.19102 82.94301 89.07981 83.03791 89.07981 83.03791"/>
      <polygon class="cls-1" points="92.46776 100.607 94.55637 97.47742 94.67008 97.3844 92.5823 100.51378 92.46776 100.607 92.46776 100.607"/>
      <polygon class="cls-1" points="94.55637 97.47742 89.07981 83.03791 89.19102 82.94301 94.67008 97.3844 94.55637 97.47742 94.55637 97.47742"/>
      <polygon class="cls-1" points="94.67008 97.3844 89.19102 82.94301 84.75124 79.70955 69.10919 78.93739 66.75887 81.95368 72.14095 96.95485 76.84326 100.3014 92.5823 100.51378 94.67008 97.3844 94.67008 97.3844"/>
      <polygon class="cls-1" points="89.07981 83.03791 94.55637 97.47742 92.46776 100.607 76.72871 100.39735 72.02723 97.05184 66.6485 82.05255 68.99882 79.03605 84.64088 79.80528 89.07981 83.03791 89.07981 83.03791"/>
    </g>
    <g>
      <polygon class="cls-1" points="96.79716 97.52027 101.23192 100.72406 115.69589 100.91741 115.81043 100.82795 101.34563 100.6323 96.91087 97.42746 96.79716 97.52027 96.79716 97.52027"/>
      <polygon class="cls-1" points="91.31224 83.13657 96.79716 97.52027 96.91087 97.42746 91.42345 83.04209 91.31224 83.13657 91.31224 83.13657"/>
      <path class="cls-1" d="M93.35822,80.23483l-2.04598,2.90174c.73993-.96828,1.47026-1.98315,2.15634-2.99601l-.11037,.09427h0Z"/>
      <polygon class="cls-1" points="111.95594 84.04376 107.75613 80.94365 93.35822 80.23483 93.46859 80.14056 107.8665 80.85189 112.06714 83.95283 111.95594 84.04376 111.95594 84.04376"/>
      <polygon class="cls-1" points="115.69589 100.91741 117.50691 97.91199 117.62062 97.82274 115.81043 100.82795 115.69589 100.91741 115.69589 100.91741"/>
      <polygon class="cls-1" points="117.50691 97.91199 111.95594 84.04376 112.06714 83.95283 117.62062 97.82274 117.50691 97.91199 117.50691 97.91199"/>
      <polygon class="cls-1" points="117.62062 97.82274 112.06714 83.95283 107.8665 80.85189 93.46859 80.14056 91.42345 83.04209 96.91087 97.42746 101.34563 100.6323 115.81043 100.82795 117.62062 97.82274 117.62062 97.82274"/>
      <polygon class="cls-1" points="111.95594 84.04376 117.50691 97.91199 115.69589 100.91741 101.23192 100.72406 96.79716 97.52027 91.31224 83.13657 93.35822 80.23483 107.75613 80.94365 111.95594 84.04376 111.95594 84.04376"/>
    </g>
    <g>
      <polygon class="cls-1" points="140.58036 98.34928 144.55776 101.3037 156.898 101.46799 157.01087 101.38543 144.67148 101.21904 140.69407 98.264 140.58036 98.34928 140.58036 98.34928"/>
      <polygon class="cls-1" points="134.97755 85.05609 140.58036 98.34928 140.69407 98.264 135.08875 84.96913 134.97755 85.05609 134.97755 85.05609"/>
      <polygon class="cls-1" points="136.52604 82.35961 134.97755 85.05609 135.08875 84.96913 136.6364 82.27287 136.52604 82.35961 136.52604 82.35961"/>
      <polygon class="cls-1" points="152.63046 85.83138 148.84453 82.96538 136.52604 82.35961 136.6364 82.27287 148.95406 82.88093 152.74083 85.74755 152.63046 85.83138 152.63046 85.83138"/>
      <polygon class="cls-1" points="156.898 101.46799 158.25501 98.6831 158.36789 98.60074 157.01087 101.38543 156.898 101.46799 156.898 101.46799"/>
      <polygon class="cls-1" points="158.25501 98.6831 152.63046 85.83138 152.74083 85.74755 158.36789 98.60074 158.25501 98.6831 158.25501 98.6831"/>
      <polygon class="cls-1" points="158.36789 98.60074 152.74083 85.74755 148.95406 82.88093 136.6364 82.27287 135.08875 84.96913 140.69407 98.264 144.67148 101.21904 157.01087 101.38543 158.36789 98.60074 158.36789 98.60074"/>
      <polygon class="cls-1" points="152.63046 85.83138 158.25501 98.6831 156.898 101.46799 144.55776 101.3037 140.58036 98.34928 134.97755 85.05609 136.52604 82.35961 148.84453 82.96538 152.63046 85.83138 152.63046 85.83138"/>
    </g>
    <g>
      <polygon class="cls-1" points="115.38569 38.56659 119.2059 41.50533 131.45416 43.01096 131.557 42.92254 119.30874 41.4144 115.48769 38.47504 115.38569 38.56659 115.38569 38.56659"/>
      <polygon class="cls-1" points="110.3807 26.69207 115.38569 38.56659 115.48769 38.47504 110.48187 26.59947 110.3807 26.69207 110.3807 26.69207"/>
      <path class="cls-1" d="M112.02701,24.57378l-1.64631,2.1183c.6989-.62927,1.28112-1.36616,1.74665-2.21069l-.10033,.09239h0Z"/>
      <polygon class="cls-1" points="127.88227 29.27923 124.23764 26.43121 112.02701 24.57378 112.12734 24.48138 124.33798 26.34111 127.98261 29.18997 127.88227 29.27923 127.88227 29.27923"/>
      <polygon class="cls-1" points="131.45416 43.01096 132.92489 40.80195 133.02689 40.71374 131.557 42.92254 131.45416 43.01096 131.45416 43.01096"/>
      <polygon class="cls-1" points="132.92489 40.80195 127.88227 29.27923 127.98261 29.18997 133.02689 40.71374 132.92489 40.80195 132.92489 40.80195"/>
      <polygon class="cls-1" points="133.02689 40.71374 127.98261 29.18997 124.33798 26.34111 112.12734 24.48138 110.48187 26.59947 115.48769 38.47504 119.30874 41.4144 131.557 42.92254 133.02689 40.71374 133.02689 40.71374"/>
      <polygon class="cls-1" points="127.88227 29.27923 132.92489 40.80195 131.45416 43.01096 119.2059 41.50533 115.38569 38.56659 110.3807 26.69207 112.02701 24.57378 124.23764 26.43121 127.88227 29.27923 127.88227 29.27923"/>
    </g>
    <g>
      <polygon class="cls-1" points="36.85603 72.18283 41.76821 75.67738 58.80824 76.5716 58.91778 76.47106 41.8769 75.57391 36.96472 72.07832 36.85603 72.18283 36.85603 72.18283"/>
      <polygon class="cls-1" points="31.85773 57.20654 36.85603 72.18283 36.96472 72.07832 31.96308 57.10014 31.85773 57.20654 31.85773 57.20654"/>
      <path class="cls-1" d="M34.57427,54.34848l-2.71654,2.85805c.94243-.98591,1.88288-1.97402,2.82105-2.96403l-.10451,.10598h0Z"/>
      <polygon class="cls-1" points="56.10257 59.16953 51.47467 55.79998 34.57427 54.34848 34.67878 54.24251 51.58002 55.69693 56.20876 59.06773 56.10257 59.16953 56.10257 59.16953"/>
      <path class="cls-1" d="M58.80824,76.5716c.83002-1.03863,1.68104-2.07135,2.54096-3.08339-.82955,1.03887-1.68076,2.07182-2.54096,3.08339h0Z"/>
      <polygon class="cls-1" points="61.24051 73.58855 56.10257 59.16953 56.20876 59.06773 61.3492 73.48822 61.24051 73.58855 61.24051 73.58855"/>
      <polygon class="cls-1" points="61.3492 73.48822 56.20876 59.06773 51.58002 55.69693 34.67878 54.24251 31.96308 57.10014 36.96472 72.07832 41.8769 75.57391 58.91778 76.47106 61.3492 73.48822 61.3492 73.48822"/>
      <polygon class="cls-1" points="56.10257 59.16953 61.24051 73.58855 58.80824 76.5716 41.76821 75.67738 36.85603 72.18283 31.85773 57.20654 34.57427 54.34848 51.47467 55.79998 56.10257 59.16953 56.10257 59.16953"/>
    </g>
    <g>
      <polygon class="cls-1" points="63.66441 73.72881 68.28812 77.06972 83.92014 77.88932 84.03051 77.79338 68.39849 76.97085 63.7731 73.6291 63.66441 73.72881 63.66441 73.72881"/>
      <polygon class="cls-1" points="58.5131 59.36497 63.66441 73.72881 63.7731 73.6291 58.61928 59.26338 58.5131 59.36497 58.5131 59.36497"/>
      <path class="cls-1" d="M60.88432,56.60809l-2.37122,2.75688c.83495-.94231,1.66271-1.89726,2.47741-2.85805l-.10619,.10117h0Z"/>
      <polygon class="cls-1" points="80.78555 61.16784 76.41517 57.94127 60.88432 56.60809 60.99051 56.50692 76.52136 57.84303 80.89257 61.07044 80.78555 61.16784 80.78555 61.16784"/>
      <path class="cls-1" d="M83.92014,77.88932c.71557-1.00246,1.467-2.00311,2.22825-2.96696-.7149,1.00267-1.46669,2.00381-2.22825,2.96696h0Z"/>
      <polygon class="cls-1" points="86.03886 75.01831 80.78555 61.16784 80.89257 61.07044 86.14839 74.92236 86.03886 75.01831 86.03886 75.01831"/>
      <polygon class="cls-1" points="86.14839 74.92236 80.89257 61.07044 76.52136 57.84303 60.99051 56.50692 58.61928 59.26338 63.7731 73.6291 68.39849 76.97085 84.03051 77.79338 86.14839 74.92236 86.14839 74.92236"/>
      <polygon class="cls-1" points="80.78555 61.16784 86.03886 75.01831 83.92014 77.88932 68.28812 77.06972 63.66441 73.72881 58.5131 59.36497 60.88432 56.60809 76.41517 57.94127 80.78555 61.16784 80.78555 61.16784"/>
    </g>
    <g>
      <polygon class="cls-1" points="88.26627 75.14686 92.63247 78.34647 107.02369 79.10169 107.13406 79.00972 92.74284 78.25199 88.37581 75.05154 88.26627 75.14686 88.26627 75.14686"/>
      <polygon class="cls-1" points="83.00376 61.34782 88.26627 75.14686 88.37581 75.05154 83.11162 61.25083 83.00376 61.34782 83.00376 61.34782"/>
      <path class="cls-1" d="M85.07733,58.68562l-2.07357,2.66219c.74236-.89964,1.47528-1.82693,2.18059-2.75876l-.10702,.09657h0Z"/>
      <polygon class="cls-1" points="103.53542 63.01022 99.39665 59.91534 85.07733 58.68562 85.18435 58.58905 99.50367 59.82128 103.64328 62.917 103.53542 63.01022 103.53542 63.01022"/>
      <polygon class="cls-1" points="107.02369 79.10169 108.86984 76.33456 108.97937 76.2428 107.13406 79.00972 107.02369 79.10169 107.02369 79.10169"/>
      <polygon class="cls-1" points="108.86984 76.33456 103.53542 63.01022 103.64328 62.917 108.97937 76.2428 108.86984 76.33456 108.86984 76.33456"/>
      <polygon class="cls-1" points="108.97937 76.2428 103.64328 62.917 99.50367 59.82128 85.18435 58.58905 83.11162 61.25083 88.37581 75.05154 92.74284 78.25199 107.13406 79.00972 108.97937 76.2428 108.97937 76.2428"/>
      <polygon class="cls-1" points="103.53542 63.01022 108.86984 76.33456 107.02369 79.10169 92.63247 78.34647 88.26627 75.14686 83.00376 61.34782 85.07733 58.68562 99.39665 59.91534 103.53542 63.01022 103.53542 63.01022"/>
    </g>
    <g>
      <polygon class="cls-1" points="131.86135 77.66064 135.78524 80.61151 148.10122 81.2572 148.21075 81.17254 135.89561 80.52455 131.97088 77.57306 131.86135 77.66064 131.86135 77.66064"/>
      <polygon class="cls-1" points="126.46924 64.86724 131.86135 77.66064 131.97088 77.57306 126.57626 64.7784 126.46924 64.86724 126.46924 64.86724"/>
      <polygon class="cls-1" points="128.05368 62.37624 126.46924 64.86724 126.57626 64.7784 128.1607 62.28761 128.05368 62.37624 128.05368 62.37624"/>
      <polygon class="cls-1" points="144.08034 66.29281 140.34207 63.43121 128.05368 62.37624 128.1607 62.28761 140.44826 63.34467 144.18737 66.2069 144.08034 66.29281 144.08034 66.29281"/>
      <polygon class="cls-1" points="148.10122 81.2572 149.50004 78.67715 149.60874 78.59249 148.21075 81.17254 148.10122 81.2572 148.10122 81.2572"/>
      <polygon class="cls-1" points="149.50004 78.67715 144.08034 66.29281 144.18737 66.2069 149.60874 78.59249 149.50004 78.67715 149.50004 78.67715"/>
      <polygon class="cls-1" points="149.60874 78.59249 144.18737 66.2069 140.44826 63.34467 128.1607 62.28761 126.57626 64.7784 131.97088 77.57306 135.89561 80.52455 148.21075 81.17254 149.60874 78.59249 149.60874 78.59249"/>
      <polygon class="cls-1" points="144.08034 66.29281 149.50004 78.67715 148.10122 81.2572 135.78524 80.61151 131.86135 77.66064 126.46924 64.86724 128.05368 62.37624 140.34207 63.43121 144.08034 66.29281 144.08034 66.29281"/>
    </g>
    <g>
      <polygon class="cls-1" points="94.62243 35.91987 98.6408 38.97691 111.82383 40.59772 111.92668 40.50554 98.74364 38.88222 94.72527 35.82434 94.62243 35.91987 94.62243 35.91987"/>
      <polygon class="cls-1" points="89.68015 23.63174 94.62243 35.91987 94.72527 35.82434 89.78048 23.53511 89.68015 23.63174 89.68015 23.63174"/>
      <path class="cls-1" d="M91.54719,21.45799l-1.86705,2.17375c.72465-.69143,1.38017-1.44811,1.96654-2.27011l-.0995,.09636h0Z"/>
      <polygon class="cls-1" points="108.49777 26.41365 104.67254 23.45484 91.54719 21.45799 91.64669 21.36163 104.77287 23.3612 108.5981 26.32084 108.49777 26.41365 108.49777 26.41365"/>
      <path class="cls-1" d="M111.82383,40.59772c.44087-.92546,1.03284-1.71336,1.77591-2.3637-.44242,.92374-1.03439,1.71164-1.77591,2.3637h0Z"/>
      <polygon class="cls-1" points="113.4969 38.32579 108.49777 26.41365 108.5981 26.32084 113.59974 38.23402 113.4969 38.32579 113.4969 38.32579"/>
      <polygon class="cls-1" points="113.59974 38.23402 108.5981 26.32084 104.77287 23.3612 91.64669 21.36163 89.78048 23.53511 94.72527 35.82434 98.74364 38.88222 111.92668 40.50554 113.59974 38.23402 113.59974 38.23402"/>
      <polygon class="cls-1" points="108.49777 26.41365 113.4969 38.32579 111.82383 40.59772 98.6408 38.97691 94.62243 35.91987 89.68015 23.63174 91.54719 21.45799 104.67254 23.45484 108.49777 26.41365 108.49777 26.41365"/>
    </g>
    <g>
      <polygon class="cls-1" points="119.57128 97.95108 123.76524 101.02527 137.10463 101.20357 137.21834 101.11787 123.87979 100.93706 119.68499 97.86224 119.57128 97.95108 119.57128 97.95108"/>
      <polygon class="cls-1" points="114.01362 84.13427 119.57128 97.95108 119.68499 97.86224 114.12482 84.04376 114.01362 84.13427 114.01362 84.13427"/>
      <polygon class="cls-1" points="115.79455 81.33913 114.01362 84.13427 114.12482 84.04376 115.90492 81.24863 115.79455 81.33913 115.79455 81.33913"/>
      <polygon class="cls-1" points="133.07455 84.97227 129.0913 81.99381 115.79455 81.33913 115.90492 81.24863 129.20166 81.9056 133.18575 84.8851 133.07455 84.97227 133.07455 84.97227"/>
      <polygon class="cls-1" points="137.10463 101.20357 138.67318 98.31291 138.78689 98.22721 137.21834 101.11787 137.10463 101.20357 137.10463 101.20357"/>
      <polygon class="cls-1" points="138.67318 98.31291 133.07455 84.97227 133.18575 84.8851 138.78689 98.22721 138.67318 98.31291 138.67318 98.31291"/>
      <polygon class="cls-1" points="138.78689 98.22721 133.18575 84.8851 129.20166 81.9056 115.90492 81.24863 114.12482 84.04376 119.68499 97.86224 123.87979 100.93706 137.21834 101.11787 138.78689 98.22721 138.78689 98.22721"/>
      <polygon class="cls-1" points="133.07455 84.97227 138.67318 98.31291 137.10463 101.20357 123.76524 101.02527 119.57128 97.95108 114.01362 84.13427 115.79455 81.33913 129.0913 81.99381 133.07455 84.97227 133.07455 84.97227"/>
    </g>
    <g>
      <polygon class="cls-1" points="29.086 48.8991 33.9129 52.38591 50.79909 53.88695 50.90444 53.7839 34.01741 52.27951 29.18968 48.79187 29.086 48.8991 29.086 48.8991"/>
      <polygon class="cls-1" points="24.30342 34.57079 29.086 48.8991 29.18968 48.79187 24.40459 34.46189 24.30342 34.57079 24.30342 34.57079"/>
      <path class="cls-1" d="M27.02749,31.97424l-2.72407,2.59656c.9352-.90745,1.87781-1.80995,2.82524-2.70504l-.10117,.10849h0Z"/>
      <polygon class="cls-1" points="48.32503 37.34565 43.77238 33.9853 27.02749 31.97424 27.12866 31.86575 43.87438 33.87995 48.42787 37.24135 48.32503 37.34565 48.32503 37.34565"/>
      <path class="cls-1" d="M50.79909,53.88695c.84509-.94728,1.69759-1.89004,2.55517-2.82565-.84469,.94757-1.69729,1.89042-2.55517,2.82565h0Z"/>
      <polygon class="cls-1" points="53.24975 51.16414 48.32503 37.34565 48.42787 37.24135 53.35426 51.06129 53.24975 51.16414 53.24975 51.16414"/>
      <polygon class="cls-1" points="53.35426 51.06129 48.42787 37.24135 43.87438 33.87995 27.12866 31.86575 24.40459 34.46189 29.18968 48.79187 34.01741 52.27951 50.90444 53.7839 53.35426 51.06129 53.35426 51.06129"/>
      <polygon class="cls-1" points="48.32503 37.34565 53.24975 51.16414 50.79909 53.88695 33.9129 52.38591 29.086 48.8991 24.30342 34.57079 27.02749 31.97424 43.77238 33.9853 48.32503 37.34565 48.32503 37.34565"/>
    </g>
    <g>
      <polygon class="cls-1" points="55.65358 51.39031 60.20372 54.72369 75.72287 56.10307 75.82989 56.00462 60.30907 54.62231 55.75893 51.28788 55.65358 51.39031 55.65358 51.39031"/>
      <polygon class="cls-1" points="50.71632 37.6222 55.65358 51.39031 55.75893 51.28788 50.81916 37.51831 50.71632 37.6222 50.71632 37.6222"/>
      <path class="cls-1" d="M53.1051,35.10633l-2.38878,2.51587c.83234-.87102,1.6627-1.74423,2.49079-2.61934l-.10201,.10347h0Z"/>
      <polygon class="cls-1" points="72.82405 40.17507 68.51889 36.95707 53.1051 35.10633 53.20711 35.00286 68.62174 36.85652 72.92773 40.07557 72.82405 40.17507 72.82405 40.17507"/>
      <path class="cls-1" d="M75.72287,56.10307c.73344-.92039,1.48737-1.83502,2.24999-2.7295-.73297,.92063-1.48708,1.83549-2.24999,2.7295h0Z"/>
      <polygon class="cls-1" points="77.86667 53.47182 72.82405 40.17507 72.92773 40.07557 77.97285 53.37357 77.86667 53.47182 77.86667 53.47182"/>
      <polygon class="cls-1" points="77.97285 53.37357 72.92773 40.07557 68.62174 36.85652 53.20711 35.00286 50.81916 37.51831 55.75893 51.28788 60.30907 54.62231 75.82989 56.00462 77.97285 53.37357 77.97285 53.37357"/>
      <polygon class="cls-1" points="72.82405 40.17507 77.86667 53.47182 75.72287 56.10307 60.20372 54.72369 55.65358 51.39031 50.71632 37.6222 53.1051 35.10633 68.51889 36.95707 72.82405 40.17507 72.82405 40.17507"/>
    </g>
    <g>
      <polygon class="cls-1" points="80.0807 53.67959 84.38168 56.87313 98.69347 58.14549 98.79966 58.05122 84.48787 56.77615 80.18689 53.58197 80.0807 53.67959 80.0807 53.67959"/>
      <polygon class="cls-1" points="75.02805 40.4305 80.0807 53.67959 80.18689 53.58197 75.13173 40.33121 75.02805 40.4305 75.02805 40.4305"/>
      <path class="cls-1" d="M77.12503,37.99113l-2.09698,2.43937c.74223-.83592,1.47743-1.68423,2.19982-2.53824l-.10284,.09887h0Z"/>
      <polygon class="cls-1" points="95.44098 42.78814 91.36074 39.70078 77.12503 37.99113 77.22787 37.89226 91.46442 39.60463 95.54466 42.69303 95.44098 42.78814 95.44098 42.78814"/>
      <path class="cls-1" d="M98.69347,58.14549c.48909-1.03688,1.1499-1.91661,1.98243-2.6392-.49077,1.035-1.15158,1.91474-1.98243,2.6392h0Z"/>
      <polygon class="cls-1" points="100.56972 55.60015 95.44098 42.78814 95.54466 42.69303 100.6759 55.50629 100.56972 55.60015 100.56972 55.60015"/>
      <polygon class="cls-1" points="100.6759 55.50629 95.54466 42.69303 91.46442 39.60463 77.22787 37.89226 75.13173 40.33121 80.18689 53.58197 84.48787 56.77615 98.79966 58.05122 100.6759 55.50629 100.6759 55.50629"/>
      <polygon class="cls-1" points="95.44098 42.78814 100.56972 55.60015 98.69347 58.14549 84.38168 56.87313 80.0807 53.67959 75.02805 40.4305 77.12503 37.99113 91.36074 39.70078 95.44098 42.78814 95.44098 42.78814"/>
    </g>
    <g>
      <polygon class="cls-1" points="123.46925 57.7475 127.34047 60.69314 139.62552 61.7849 139.7317 61.69815 127.44749 60.60409 123.57544 57.65783 123.46925 57.7475 123.46925 57.7475"/>
      <polygon class="cls-1" points="118.27614 45.42629 123.46925 57.7475 123.57544 57.65783 118.37982 45.33557 118.27614 45.42629 118.27614 45.42629"/>
      <path class="cls-1" d="M119.89319,43.12781l-1.61705,2.29848c.74769-.63979,1.32126-1.43619,1.72073-2.3892l-.10368,.09072h0Z"/>
      <polygon class="cls-1" points="135.83624 47.45408 132.14479 44.59875 119.89319 43.12781 119.99687 43.03709 132.24763 44.51033 135.93992 47.3665 135.83624 47.45408 135.83624 47.45408"/>
      <polygon class="cls-1" points="139.62552 61.7849 141.06196 59.3959 141.16732 59.30937 139.7317 61.69815 139.62552 61.7849 139.62552 61.7849"/>
      <polygon class="cls-1" points="141.06196 59.3959 135.83624 47.45408 135.93992 47.3665 141.16732 59.30937 141.06196 59.3959 141.06196 59.3959"/>
      <polygon class="cls-1" points="141.16732 59.30937 135.93992 47.3665 132.24763 44.51033 119.99687 43.03709 118.37982 45.33557 123.57544 57.65783 127.44749 60.60409 139.7317 61.69815 141.16732 59.30937 141.16732 59.30937"/>
      <polygon class="cls-1" points="135.83624 47.45408 141.06196 59.3959 139.62552 61.7849 127.34047 60.69314 123.46925 57.7475 118.27614 45.42629 119.89319 43.12781 132.14479 44.59875 135.83624 47.45408 135.83624 47.45408"/>
    </g>
    <g>
      <polygon class="cls-1" points="110.92501 76.45308 115.05877 79.52351 128.35217 80.22104 128.46254 80.13283 115.16913 79.433 111.03454 76.36174 110.92501 76.45308 110.92501 76.45308"/>
      <polygon class="cls-1" points="105.58474 63.17598 110.92501 76.45308 111.03454 76.36174 105.69176 63.08318 105.58474 63.17598 105.58474 63.17598"/>
      <path class="cls-1" d="M107.39744,60.60221l-1.8127,2.57377c.83689-.71072,1.4768-1.59951,1.91972-2.66637l-.10702,.0926h0Z"/>
      <polygon class="cls-1" points="124.57209 64.7136 120.64318 61.73996 107.39744 60.60221 107.50446 60.50961 120.74937 61.64965 124.67911 64.62414 124.57209 64.7136 124.57209 64.7136"/>
      <polygon class="cls-1" points="128.35217 80.22104 129.95918 77.55069 130.06955 77.46269 128.46254 80.13283 128.35217 80.22104 128.35217 80.22104"/>
      <polygon class="cls-1" points="129.95918 77.55069 124.57209 64.7136 124.67911 64.62414 130.06955 77.46269 129.95918 77.55069 129.95918 77.55069"/>
      <polygon class="cls-1" points="130.06955 77.46269 124.67911 64.62414 120.74937 61.64965 107.50446 60.50961 105.69176 63.08318 111.03454 76.36174 115.16913 79.433 128.46254 80.13283 130.06955 77.46269 130.06955 77.46269"/>
      <polygon class="cls-1" points="124.57209 64.7136 129.95918 77.55069 128.35217 80.22104 115.05877 79.52351 110.92501 76.45308 105.58474 63.17598 107.39744 60.60221 120.64318 61.73996 124.57209 64.7136 124.57209 64.7136"/>
    </g>
    <g>
      <polygon class="cls-1" points="102.61486 55.79204 106.69092 58.85661 119.93081 60.03386 120.03784 59.94356 106.79711 58.76401 102.72104 55.6986 102.61486 55.79204 102.61486 55.79204"/>
      <polygon class="cls-1" points="97.47943 43.02371 102.61486 55.79204 102.72104 55.6986 97.58311 42.92881 97.47943 43.02371 97.47943 43.02371"/>
      <path class="cls-1" d="M99.3214,40.65688l-1.84196,2.36683c.77762-.70112,1.42588-1.52163,1.94481-2.46152l-.10284,.09469h0Z"/>
      <polygon class="cls-1" points="116.38568 45.20765 112.50945 42.24069 99.3214 40.65688 99.42424 40.56219 112.61229 42.14872 116.48936 45.11651 116.38568 45.20765 116.38568 45.20765"/>
      <polygon class="cls-1" points="119.93081 60.03386 121.57378 57.56941 121.67913 57.47932 120.03784 59.94356 119.93081 60.03386 119.93081 60.03386"/>
      <polygon class="cls-1" points="121.57378 57.56941 116.38568 45.20765 116.48936 45.11651 121.67913 57.47932 121.57378 57.56941 121.57378 57.56941"/>
      <polygon class="cls-1" points="121.67913 57.47932 116.48936 45.11651 112.61229 42.14872 99.42424 40.56219 97.58311 42.92881 102.72104 55.6986 106.79711 58.76401 120.03784 59.94356 121.67913 57.47932 121.67913 57.47932"/>
      <polygon class="cls-1" points="116.38568 45.20765 121.57378 57.56941 119.93081 60.03386 106.69092 58.85661 102.61486 55.79204 97.47943 43.02371 99.3214 40.65688 112.50945 42.24069 116.38568 45.20765 116.38568 45.20765"/>
    </g>
  </g>
</svg>