<?xml version="1.0" encoding="UTF-8"?>
<svg id="Layer_1" data-name="Layer 1" xmlns="http://www.w3.org/2000/svg" width="1.23637in" height="2.30492in" viewBox="0 0 89.01893 165.95436">
  <defs>
    <style>
      .cls-1 {
        fill: #ebc34a;
        fill-rule: evenodd;
      }
    </style>
  </defs>
  <path class="cls-1" d="M75.37472,.23763c-7.11186,22.91641-14.22849,45.82276-21.4536,69.09005h34.89617c.06721,.16565,.13443,.33077,.20164,.49642-26.43053,32.0436-52.86159,64.08719-79.29741,96.13026-.12913-.07198-.26885-.14448-.40857-.21699,.38264-1.22994,.72876-2.47047,1.12674-3.68983,2.79648-8.51751,5.60778-17.02443,8.41431-25.53189,2.55832-7.79352,5.12194-15.58756,7.69032-23.38108,2.16563-6.5641,4.32068-13.12768,6.51224-19.68119,.27891-.85789,.08785-1.17808-.79068-1.16802-1.33896,.01058-2.68269-.01006-4.02113-.01006-8.67787,0-17.34991,.01006-26.02249,0-.59433,0-1.18337-.09315-2.22226-.18629C25.11803,61.17217,49.95662,30.58608,74.80103,0c.19105,.07251,.3874,.15507,.57369,.23763Z"/>
</svg>