<?xml version="1.0" encoding="utf-8"?>
<!-- Generator: Adobe Illustrator 27.5.0, SVG Export Plug-In . SVG Version: 6.00 Build 0)  -->
<svg version="1.1" id="Layer_1" xmlns="http://www.w3.org/2000/svg" xmlns:xlink="http://www.w3.org/1999/xlink" x="0px" y="0px"
	 viewBox="0 0 362.1 292.7" style="enable-background:new 0 0 362.1 292.7;" xml:space="preserve">
<style type="text/css">
	.st0{fill:#CACCCD;}
</style>
<path class="st0" d="M362.1,141c0-34.2-23.9-62-53.3-62l0,0H285c-5.2-20.6-22.3-36.3-42.9-33.9C231.3,17.6,207.8,0,181.8,0
	c-23.9,0-45.8,14.9-57.6,39c-7.7-6-16.6-9.1-25.9-9.1c-27.7,0-49.3,27.8-46.7,59.8C23,90.8,0,118.2,0,151.7c0,16,5.2,30.6,13.8,41.6
	c-3.8,11-3.8,23.7,1,35.1c8.8,21,30.3,30,48.5,20.5c6.7,21,27.6,30.7,44.9,20.9c5.8-3.3,10.6-8.4,13.8-14.9
	c10.9,8.7,24.3,11.5,36.9,7.9c0.7,0,1.4,0.1,2.1,0.1c9.3,0,18.2-3.1,25.9-9.1c11.8,24.1,33.6,39,57.6,39c26,0,49.5-17.6,60.2-45.1
	c29.8,3.5,52.3-30.7,42-63.1C356.7,172.8,362.1,157.5,362.1,141L362.1,141z"/>
</svg>
