<?xml version="1.0" encoding="UTF-8"?>
<svg id="Layer_1" data-name="Layer 1" xmlns="http://www.w3.org/2000/svg" width="2.13228in" height="1.49067in" viewBox="0 0 153.52393 107.32843">
  <defs>
    <style>
      .cls-1 {
        fill: #bcaf97;
      }
    </style>
  </defs>
  <path class="cls-1" d="M153.52393,31.9552v-5.93909c0-1.65564-1.34229-2.99768-2.99805-2.99768h-15.19238c-1.40918,0-2.58203,.9751-2.90332,2.28491l-1.62598-4.49902C126.29297,8.31921,114.44141,0,101.16602,0H52.35791c-13.27539,0-25.12695,8.31921-29.63867,20.80432l-1.62549,4.49902c-.32129-1.30981-1.49463-2.28491-2.90332-2.28491H2.99756c-1.65527,0-2.99756,1.34204-2.99756,2.99768v5.93909c0,1.65552,1.34229,2.99768,2.99756,2.99768h14.60938l-1.3833,3.82825h-6.22705c-5.521,0-9.99658,4.47583-9.99658,9.99683v55.55273c0,1.65558,1.34229,2.99774,2.99756,2.99774H23.88232c1.65527,0,2.99756-1.34216,2.99756-2.99774v-12.13251H126.64355v12.13251c0,1.65558,1.34229,2.99774,2.99805,2.99774h20.88428c1.65576,0,2.99805-1.34216,2.99805-2.99774V48.77795c0-5.521-4.47607-9.99683-9.99707-9.99683h-6.22656l-1.3833-3.82825h14.60889c1.65576,0,2.99805-1.34216,2.99805-2.99768ZM28.70312,22.57617c4.01172-10.60828,14.55127-17.677,26.35693-17.677h43.40381c11.80566,0,22.34521,7.06873,26.35693,17.677l6.12842,16.20496H22.57471l6.12842-16.20496Zm-6.12842,43.2594c-3.96143,0-7.17236-3.21118-7.17236-7.17236s3.21094-7.17236,7.17236-7.17236c3.96094,0,7.17236,3.21118,7.17236,7.17236s-3.21143,7.17236-7.17236,7.17236Zm114.87256-7.17236c0,3.96118-3.21143,7.17236-7.17236,7.17236s-7.17236-3.21118-7.17236-7.17236,3.21143-7.17236,7.17236-7.17236,7.17236,3.21118,7.17236,7.17236Z"/>
</svg>